<svg width="555" height="89" viewBox="0 0 555 89" fill="none" xmlns="http://www.w3.org/2000/svg">
<path d="M129.719 87.8701C129.529 88.3396 129.222 88.5879 128.901 88.5879C128.825 88.5878 128.748 88.5696 128.667 88.5381L128.604 88.1543C128.68 88.1814 128.757 88.2002 128.834 88.2002C129.069 88.2002 129.29 88.0508 129.416 87.7217L129.511 87.4727L128.893 85.6445L128.694 85.2705L129.137 85.2119L129.665 86.7148L129.724 87.0439L129.818 86.7148L130.387 85.2705L130.784 85.2119L129.719 87.8701ZM46.168 85.2119C46.6013 85.2119 46.9805 85.6088 46.9805 86.3311C46.9804 86.981 46.5289 87.5498 45.8789 87.5498C45.7797 87.5498 45.6535 87.536 45.5273 87.5225V88.2363L45.5723 88.5742H45.1484V85.6855L45.0898 85.2705L45.5273 85.2207V85.4863C45.5358 85.4757 45.7523 85.212 46.168 85.2119ZM77.0449 85.2119C77.4781 85.2121 77.8574 85.609 77.8574 86.3311C77.8574 86.981 77.4057 87.5497 76.7559 87.5498C76.6566 87.5498 76.5297 87.536 76.4033 87.5225V88.2363L76.4492 88.5742H76.0244V85.6855L75.9658 85.2705L76.4033 85.2207V85.4863C76.4092 85.4789 76.6265 85.2119 77.0449 85.2119ZM24.5576 86.9805C24.6975 86.9805 24.829 87.0847 24.8291 87.3057C24.8291 87.5314 24.6889 87.9113 24.3594 88.1279L24.1963 87.9697C24.3 87.8705 24.4489 87.6675 24.4492 87.5186C24.4492 87.4012 24.409 87.3553 24.2871 87.3057V87.2656C24.2871 87.1077 24.3953 86.9806 24.5576 86.9805ZM4.92871 85.207C5.2808 85.207 5.60645 85.3608 5.60645 85.7852V86.9805C5.60645 87.2513 5.80957 87.4912 5.80957 87.4912L5.38965 87.5498C5.38965 87.5498 5.26336 87.3782 5.25879 87.1797C5.13696 87.3647 4.82081 87.5497 4.54102 87.5498C4.23414 87.5498 3.95815 87.3241 3.95801 86.9902C3.95801 86.4892 4.48189 86.1554 5.22656 86.1553V85.9922C5.22651 85.6315 5.07354 85.5099 4.88867 85.5098C4.47725 85.5098 4.25123 85.8415 4.24707 85.8477L4.04395 85.5547C4.04395 85.5547 4.33299 85.2071 4.92871 85.207ZM13.5098 85.2021C14.2137 85.2023 14.2683 85.9838 14.2773 86.2637L14.1729 86.3809H12.9141C12.9232 86.7869 13.1123 87.2019 13.5498 87.2021C13.928 87.2021 14.2496 86.9041 14.2588 86.8955L14.3223 87.2383C14.3223 87.2383 14.0011 87.5498 13.4414 87.5498C12.8503 87.5495 12.5117 86.9805 12.5117 86.4209C12.5118 85.7845 12.8192 85.2021 13.5098 85.2021ZM34.6182 85.2021C35.1598 85.2021 35.5664 85.5637 35.5664 86.3311C35.5664 86.981 35.1599 87.5497 34.4648 87.5498C33.5362 87.5498 33.5128 86.4918 33.5127 86.417C33.5127 85.7173 33.9321 85.2022 34.6182 85.2021ZM42.0166 85.2021C42.5583 85.2022 42.9648 85.5637 42.9648 86.3311C42.9648 86.981 42.5583 87.5497 41.8633 87.5498C40.9346 87.5498 40.9112 86.4918 40.9111 86.417C40.9111 85.7173 41.3305 85.2021 42.0166 85.2021ZM65.0537 85.2021C65.5954 85.2022 66.002 85.5637 66.002 86.3311C66.0019 86.981 65.5954 87.5497 64.9004 87.5498C63.9718 87.5498 63.9483 86.4918 63.9482 86.417C63.9482 85.7173 64.3676 85.2021 65.0537 85.2021ZM72.8926 85.2021C73.4343 85.2021 73.8408 85.5637 73.8408 86.3311C73.8408 86.981 73.4344 87.5498 72.7393 87.5498C71.8108 87.5497 71.7872 86.4918 71.7871 86.417C71.7871 85.7174 72.2066 85.2023 72.8926 85.2021ZM91.3359 85.2021C91.8776 85.2021 92.2842 85.5637 92.2842 86.3311C92.2841 86.981 91.8777 87.5497 91.1826 87.5498C90.254 87.5498 90.2305 86.4918 90.2305 86.417C90.2305 85.7173 90.6498 85.2022 91.3359 85.2021ZM102.038 85.207C102.39 85.207 102.715 85.3609 102.715 85.7852V86.9805C102.715 87.2491 102.915 87.4874 102.918 87.4912L102.498 87.5498C102.494 87.5443 102.372 87.375 102.367 87.1797C102.245 87.3647 101.929 87.5498 101.649 87.5498C101.343 87.5496 101.068 87.324 101.067 86.9902C101.067 86.4892 101.591 86.1553 102.336 86.1553V85.9922C102.336 85.6312 102.182 85.5098 101.997 85.5098C101.588 85.5099 101.363 85.8384 101.356 85.8477L101.153 85.5547C101.153 85.5547 101.442 85.207 102.038 85.207ZM110.989 85.2021C111.693 85.2024 111.747 85.9838 111.756 86.2637L111.652 86.3809H110.394C110.403 86.7869 110.592 87.202 111.029 87.2021C111.408 87.2021 111.73 86.9034 111.738 86.8955L111.802 87.2383C111.802 87.2383 111.481 87.5498 110.921 87.5498C110.33 87.5496 109.991 86.9805 109.991 86.4209C109.991 85.7845 110.299 85.2021 110.989 85.2021ZM133.52 85.2021C133.845 85.2021 134.089 85.3154 134.256 85.5186L134.017 85.8213C133.872 85.6136 133.691 85.5186 133.511 85.5186C133.1 85.5187 132.874 85.9245 132.874 86.3486C132.874 86.7639 133.069 87.2021 133.516 87.2021C133.893 87.2021 134.183 86.9056 134.192 86.8955L134.256 87.2383C134.256 87.2383 133.967 87.5498 133.407 87.5498C132.816 87.5498 132.478 86.9806 132.478 86.4209C132.478 85.7847 132.829 85.2024 133.52 85.2021ZM137.188 85.2021C137.892 85.2022 137.946 85.9838 137.955 86.2637L137.851 86.3809H136.592C136.601 86.787 136.791 87.2021 137.229 87.2021C137.605 87.2019 137.925 86.9061 137.937 86.8955L138 87.2383C137.997 87.2411 137.677 87.5497 137.12 87.5498C136.529 87.5498 136.189 86.9806 136.189 86.4209C136.19 85.7845 136.497 85.2021 137.188 85.2021ZM1.86914 84.4668C1.94574 84.4668 2.01375 84.4806 2.0498 84.4941L2.08984 84.8682C2.0538 84.8592 1.99537 84.8545 1.94141 84.8545C1.83308 84.8545 1.7106 84.9405 1.5752 85.1797L1.1416 85.9561L2.13477 87.4912H1.62012L0.785156 86.1504H0.464844V87.1523L0.509766 87.4912H0.0585938V84.9365L0 84.5205H0.464844V85.7891H0.785156L1.20996 84.9951C1.43115 84.5798 1.6615 84.4668 1.86914 84.4668ZM9.18457 86.6152L10.083 85.2705H10.3311V87.1611L10.377 87.4912H9.95215V86.0508L9.84375 86.2539L9.16699 87.2695L8.43555 86.2725L8.32715 86.083V87.1523L8.37207 87.4912H7.9707V85.5996L7.92578 85.2705H8.19629L9.18457 86.6152ZM18.2637 87.1611L18.3086 87.4912H17.8848V86.5117H16.8467V87.1523L16.8916 87.4912H16.4668V85.6855L16.4082 85.2705L16.8467 85.2207V86.2041H17.8848V85.6855L17.8262 85.2705L18.2637 85.2207V87.1611ZM21.0215 86.083H21.3379C22.0327 86.0831 22.2539 86.39 22.2539 86.7871C22.2538 87.1841 22.0326 87.4911 21.3379 87.4912H20.6426V85.6855L20.584 85.2705L21.0215 85.2207V86.083ZM30.2363 86.2227H30.4805L30.8008 85.6807C31.0038 85.3378 31.2117 85.2344 31.4463 85.2344C31.505 85.2344 31.5733 85.2472 31.6094 85.2607L31.6494 85.5947C31.6177 85.5813 31.559 85.5771 31.5186 85.5771C31.3877 85.5772 31.2566 85.6402 31.1348 85.8477L30.8281 86.3584L31.7041 87.4912H31.2119L30.4756 86.5293H30.2363V87.1523L30.2822 87.4912H29.8574V85.6855L29.7988 85.2705L30.2363 85.2207V86.2227ZM39.1543 85.5859H38.4277V87.1523L38.4727 87.4912H38.0488V85.5859H37.3223V85.2705H39.1543V85.5859ZM49.5566 86.083H49.873C50.5682 86.083 50.7891 86.3899 50.7891 86.7871C50.789 87.1842 50.568 87.4912 49.873 87.4912H49.1777V85.6855L49.1191 85.2705L49.5566 85.2207V86.083ZM51.5342 87.1523L51.5791 87.4912H51.1553V85.6855L51.0967 85.2705L51.5342 85.2207V87.1523ZM54.2783 86.9043L54.3916 86.6826L55.3398 85.2705H55.6963V87.1611L55.7412 87.4912H55.3164V85.8574L55.2041 86.0781L54.2559 87.4912H53.8994V85.6855L53.8408 85.2705L54.2783 85.2207V86.9043ZM62.0996 85.5859H61.1924V87.1523L61.2373 87.4912H60.8125V85.6084L60.7676 85.2705H62.0996V85.5859ZM68.9121 85.2432C69.4176 85.2251 69.7158 85.4282 69.7158 85.7803C69.7158 86.0013 69.5709 86.1319 69.4355 86.2402C69.6658 86.3305 69.8506 86.5074 69.8506 86.8008C69.8504 87.1843 69.6295 87.4912 68.9346 87.4912H68.1719V85.5996L68.127 85.2705L68.9121 85.2432ZM80.4336 86.9043L80.5459 86.6826L81.4941 85.2705H81.8506V87.1611L81.8955 87.4912H81.4717V85.8574L81.3584 86.0781L80.4111 87.4912H80.0547V85.6855L79.9951 85.2705L80.4336 85.2207V86.9043ZM85.6787 85.5859H84.9521V87.1523L84.9971 87.4912H84.5723V85.5859H83.8457V85.2705H85.6787V85.5859ZM97.9502 84.498C98.5143 84.48 98.9159 84.7329 98.916 85.2021C98.916 85.4504 98.6945 85.7039 98.5771 85.8213C98.8706 85.9567 99.0879 86.1415 99.0879 86.5703C99.0878 87.0532 98.7988 87.4911 97.9775 87.4912H97.2959V84.9365L97.2373 84.5205L97.9502 84.498ZM107.856 87.4912H105.094V85.6855L105.035 85.2705L105.473 85.2207V87.1836H106.285V85.6855L106.227 85.2705L106.664 85.2207V87.1836H107.477V85.6855L107.418 85.2705L107.856 85.2207V87.4912ZM115.147 86.6152L116.046 85.2705H116.294V87.1611L116.339 87.4912H115.915V86.0508L115.807 86.2539L115.129 87.2695L114.397 86.2725L114.289 86.083V87.1523L114.335 87.4912H113.933V85.5996L113.888 85.2705H114.158L115.147 86.6152ZM122.151 85.2432C122.657 85.2252 122.954 85.4283 122.954 85.7803C122.954 86.0012 122.81 86.132 122.675 86.2402C122.905 86.3305 123.09 86.5074 123.09 86.8008C123.09 87.1842 122.869 87.4911 122.174 87.4912H121.411V85.5996L121.365 85.2705L122.151 85.2432ZM125.612 86.2227H125.856L126.177 85.6807C126.38 85.3378 126.588 85.2345 126.822 85.2344C126.881 85.2344 126.949 85.2472 126.985 85.2607L127.025 85.5947C126.994 85.5813 126.935 85.5771 126.895 85.5771C126.764 85.5772 126.633 85.6402 126.511 85.8477L126.204 86.3584L127.08 87.4912H126.588L125.852 86.5293H125.612V87.1523L125.658 87.4912H125.233V85.6855L125.175 85.2705L125.612 85.2207V86.2227ZM46.0371 85.5322C45.7387 85.5324 45.5326 85.8179 45.5273 85.8252V87.2246C45.5183 87.2246 45.7751 87.2558 45.9512 87.2559C46.2852 87.2559 46.5605 86.8451 46.5605 86.3711C46.5604 85.8613 46.3349 85.5322 46.0371 85.5322ZM76.9141 85.5322C76.6116 85.5322 76.4033 85.8252 76.4033 85.8252V87.2246C76.4017 87.2255 76.6545 87.2559 76.8281 87.2559C77.1621 87.2557 77.4375 86.845 77.4375 86.3711C77.4374 85.8615 77.2117 85.5325 76.9141 85.5322ZM34.5371 85.5049C34.158 85.5049 33.9278 85.902 33.9277 86.376C33.9277 86.8499 34.1579 87.2471 34.5371 87.2471C34.9162 87.247 35.1504 86.8499 35.1504 86.376C35.1504 85.9021 34.9162 85.505 34.5371 85.5049ZM41.9355 85.5049C41.5564 85.5049 41.3262 85.902 41.3262 86.376C41.3262 86.8499 41.5564 87.2471 41.9355 87.2471C42.3146 87.2469 42.5488 86.8499 42.5488 86.376C42.5488 85.9021 42.3146 85.505 41.9355 85.5049ZM64.9727 85.5049C64.5935 85.5049 64.3633 85.902 64.3633 86.376C64.3633 86.8499 64.5935 87.2471 64.9727 87.2471C65.3517 87.2469 65.5859 86.8499 65.5859 86.376C65.5859 85.9021 65.3517 85.505 64.9727 85.5049ZM72.8115 85.5049C72.4325 85.505 72.2022 85.9021 72.2021 86.376C72.2021 86.8499 72.4324 87.247 72.8115 87.2471C73.1907 87.2471 73.4258 86.8499 73.4258 86.376C73.4258 85.902 73.1907 85.5049 72.8115 85.5049ZM91.2549 85.5049C90.8757 85.5049 90.6455 85.902 90.6455 86.376C90.6455 86.8499 90.8757 87.2471 91.2549 87.2471C91.634 87.247 91.8682 86.8499 91.8682 86.376C91.8681 85.9021 91.6339 85.505 91.2549 85.5049ZM5.22656 86.4434C5.10842 86.4479 4.36468 86.4622 4.36426 86.9219C4.36426 87.0663 4.46877 87.2246 4.70801 87.2246C4.9063 87.2244 5.13608 87.0491 5.22656 86.9453V86.4434ZM102.336 86.4434C102.219 86.4479 101.474 86.4618 101.474 86.9219C101.474 87.0662 101.577 87.2244 101.816 87.2246C102.015 87.2246 102.245 87.0492 102.336 86.9453V86.4434ZM21.0215 87.1934H21.3779C21.7615 87.1934 21.87 87.0172 21.8701 86.7871C21.8701 86.5569 21.7616 86.3809 21.3779 86.3809H21.0215V87.1934ZM49.5566 87.1934H49.9141C50.2973 87.1932 50.4052 87.0171 50.4053 86.7871C50.4053 86.557 50.2974 86.381 49.9141 86.3809H49.5566V87.1934ZM68.5508 87.1934H68.9756C69.3589 87.1932 69.4668 87.0167 69.4668 86.8271C69.4666 86.5656 69.2864 86.4482 68.9209 86.4482H68.5508V87.1934ZM121.79 87.1934H122.214C122.598 87.1934 122.706 87.0167 122.706 86.8271C122.706 86.5656 122.526 86.4483 122.16 86.4482H121.79V87.1934ZM97.7021 87.166H98.0312C98.5142 87.166 98.6592 86.8857 98.6592 86.6104C98.659 86.1999 98.4192 86.0508 97.959 86.0508H97.7021V87.166ZM68.5508 85.541V86.1641H68.9707C69.0741 86.1641 69.182 86.1732 69.2051 86.1777C69.2818 86.101 69.3681 85.9744 69.3682 85.8301C69.3682 85.6179 69.2232 85.5232 68.8711 85.5322L68.5508 85.541ZM121.79 85.541V86.1641H122.21C122.314 86.1641 122.422 86.1732 122.444 86.1777C122.521 86.101 122.606 85.9744 122.606 85.8301C122.606 85.6179 122.462 85.5232 122.11 85.5322L121.79 85.541ZM13.4551 85.4961C13.1483 85.4963 12.9997 85.7669 12.9365 86.0918H13.8662C13.8527 85.8571 13.7665 85.4961 13.4551 85.4961ZM110.935 85.4961C110.628 85.4962 110.479 85.7669 110.416 86.0918H111.346C111.332 85.8571 111.246 85.4961 110.935 85.4961ZM137.134 85.4961C136.827 85.4961 136.677 85.7668 136.614 86.0918H137.544C137.53 85.8572 137.445 85.4965 137.134 85.4961ZM97.7021 84.8369V85.7168H98.0273C98.1987 85.7168 98.3473 85.749 98.3564 85.749C98.4332 85.6452 98.5282 85.4915 98.5283 85.293C98.5283 84.9771 98.334 84.8282 97.8965 84.8281C97.8379 84.8281 97.7698 84.8324 97.7021 84.8369ZM55.4248 84.498C55.4248 84.498 55.2943 85.0673 54.7979 85.0674C54.3013 85.0674 54.1699 84.498 54.1699 84.498L54.4141 84.417C54.4141 84.417 54.509 84.7822 54.7979 84.7822C55.0867 84.7822 55.1816 84.417 55.1816 84.417L55.4248 84.498Z" fill="white"/>
<path d="M48.8027 61.7588C50.2588 61.7588 51.4807 62.0623 52.4688 62.6689C53.4742 63.2757 54.2197 64.0734 54.7051 65.0615C55.1904 66.0495 55.4336 67.1158 55.4336 68.2598C55.4335 69.9584 54.8608 71.4407 53.7168 72.7061C52.5727 73.9713 50.8221 74.6035 48.4648 74.6035C46.9221 74.6035 45.6309 74.1875 44.5908 73.3555H44.4346V78.0107L44.46 78.582C44.4946 78.9634 44.582 79.2156 44.7207 79.3369C44.8596 79.458 45.1887 79.5447 45.708 79.5967C45.9334 79.5967 46.1072 79.6138 46.2285 79.6484C46.3499 79.6831 46.4102 79.7615 46.4102 79.8828C46.41 80.0559 46.2631 80.1425 45.9688 80.1426H40.3779C40.1007 80.1426 39.9621 80.056 39.9619 79.8828C39.9619 79.7963 39.9964 79.7268 40.0654 79.6748C40.1348 79.6401 40.2393 79.614 40.3779 79.5967C40.5166 79.5967 40.6382 79.5876 40.7422 79.5703C41.5221 79.5356 41.9121 79.206 41.9121 78.582V65.6592C41.9121 65.0351 41.8599 64.584 41.7559 64.3066C41.6691 64.0295 41.4439 63.8474 41.0801 63.7607C40.9588 63.7261 40.7768 63.7 40.5342 63.6826C40.2916 63.648 40.0834 63.6138 39.9102 63.5791C39.7543 63.5272 39.676 63.4404 39.6758 63.3193C39.6758 63.1633 39.7803 63.0759 39.9883 63.0586C40.1963 63.0239 40.5342 62.9807 41.002 62.9287C41.7127 62.8074 42.5104 62.513 43.3945 62.0449C43.741 61.8544 43.9834 61.7589 44.1221 61.7588C44.3301 61.7588 44.4346 61.9065 44.4346 62.2012V63.1885C45.6133 62.2352 47.0694 61.7588 48.8027 61.7588ZM7.69922 55.2061C9.74459 55.2061 11.5212 55.5789 13.0293 56.3242L13.3936 55.7783C13.5842 55.5183 13.7922 55.3877 14.0176 55.3877C14.2429 55.3877 14.3645 55.5094 14.3818 55.752L14.7979 60.459V60.7969C14.8497 61.0567 14.7191 61.1865 14.4072 61.1865C14.2514 61.1864 14.1125 61.1342 13.9912 61.0303C13.87 60.9263 13.7663 60.7703 13.6797 60.5625C13.6104 60.3373 13.541 60.1381 13.4717 59.9648C13.2637 59.1848 12.7171 58.3438 11.833 57.4424C10.9663 56.5411 9.54524 56.0899 7.56934 56.0898C6.06119 56.0898 4.95097 56.5239 4.24023 57.3906C3.52971 58.2573 3.1748 59.211 3.1748 60.251C3.17491 61.0655 3.47834 61.733 4.08496 62.2529C4.70895 62.7555 5.42855 63.1284 6.24316 63.3711C7.07518 63.6137 8.09826 63.865 9.31152 64.125C11.1662 64.5584 12.752 65.1221 14.0693 65.8154C15.4041 66.4915 16.0722 67.6179 16.0723 69.1953C16.0723 70.6861 15.4735 72.0385 14.2773 73.252C13.0986 74.4479 11.348 75.0458 9.02539 75.0459C6.35588 75.0459 4.12825 74.647 2.34277 73.8496L1.84863 74.3701C1.62328 74.5955 1.49268 74.717 1.45801 74.7344C1.31946 74.8208 1.18054 74.8381 1.04199 74.7861C0.920908 74.7342 0.860479 74.6474 0.860352 74.5264V74.4219L0.470703 69.5596C0.453374 69.2303 0.574149 69.0655 0.833984 69.0654C1.09391 69.0654 1.30201 69.2647 1.45801 69.6631C2.09933 71.2924 3.09634 72.454 4.44824 73.1475C5.80024 73.8408 7.10062 74.1874 8.34863 74.1875C9.97813 74.1875 11.1577 73.7977 11.8857 73.0176C12.6309 72.2376 13.0039 71.3793 13.0039 70.4434C13.0038 69.5074 12.613 68.814 11.833 68.3633C11.0704 67.8954 10.0913 67.5053 8.89551 67.1934C7.82074 66.8987 6.76275 66.6043 5.72266 66.3096C4.69989 66.0149 3.79863 65.6763 3.01855 65.2949C2.2386 64.9136 1.58837 64.3939 1.06836 63.7354C0.565728 63.0767 0.314539 62.2877 0.314453 61.3691C0.314453 59.705 1.01676 58.2652 2.4209 57.0518C3.84228 55.8213 5.60193 55.2061 7.69922 55.2061ZM66.2305 55.2061C68.2758 55.2061 70.0525 55.5789 71.5605 56.3242L71.9248 55.7783C72.1155 55.5183 72.3235 55.3877 72.5488 55.3877C72.7741 55.3877 72.8957 55.5094 72.9131 55.752L73.3291 60.459V60.7969C73.381 61.0567 73.2504 61.1865 72.9385 61.1865C72.7826 61.1864 72.6437 61.1342 72.5225 61.0303C72.4013 60.9263 72.2975 60.7703 72.2109 60.5625C72.1416 60.3373 72.0722 60.1381 72.0029 59.9648C71.7949 59.1848 71.2483 58.3438 70.3643 57.4424C69.4976 56.5411 68.0765 56.0899 66.1006 56.0898C64.5924 56.0898 63.4822 56.5239 62.7715 57.3906C62.061 58.2573 61.7061 59.211 61.7061 60.251C61.7062 61.0655 62.0096 61.733 62.6162 62.2529C63.2402 62.7555 63.9598 63.1284 64.7744 63.3711C65.6064 63.6137 66.6295 63.865 67.8428 64.125C69.6974 64.5584 71.2832 65.1221 72.6006 65.8154C73.9353 66.4915 74.6025 67.6179 74.6025 69.1953C74.6025 70.6861 74.0047 72.0385 72.8086 73.252C71.6299 74.4479 69.8793 75.0458 67.5566 75.0459C64.8871 75.0459 62.6595 74.647 60.874 73.8496L60.3799 74.3701C60.1545 74.5955 60.0239 74.717 59.9893 74.7344C59.8507 74.8208 59.7118 74.8381 59.5732 74.7861C59.4522 74.7342 59.3917 74.6474 59.3916 74.5264V74.4219L59.002 69.5596C58.9846 69.2303 59.1054 69.0655 59.3652 69.0654C59.6252 69.0654 59.8333 69.2647 59.9893 69.6631C60.6306 71.2924 61.6276 72.454 62.9795 73.1475C64.3315 73.8408 65.6319 74.1874 66.8799 74.1875C68.5094 74.1875 69.6889 73.7977 70.417 73.0176C71.1622 72.2376 71.5352 71.3793 71.5352 70.4434C71.5351 69.5074 71.1443 68.814 70.3643 68.3633C69.6017 67.8954 68.6225 67.5053 67.4268 67.1934C66.352 66.8987 65.294 66.6043 64.2539 66.3096C63.2311 66.0149 62.3299 65.6763 61.5498 65.2949C60.7699 64.9136 60.1196 64.3939 59.5996 63.7354C59.097 63.0767 58.8458 62.2877 58.8457 61.3691C58.8457 59.705 59.5471 58.2652 60.9512 57.0518C62.3726 55.821 64.1329 55.2061 66.2305 55.2061ZM23.7471 59.3662C23.9031 59.3662 23.9814 59.4275 23.9814 59.5488V62.123H27.6221V62.9023H23.9814V70.9639C23.9987 71.0334 24.0068 71.2066 24.0068 71.4834C24.0588 72.0901 24.1804 72.5674 24.3711 72.9141C24.5791 73.2607 25.0735 73.4336 25.8535 73.4336C26.3735 73.4336 26.7292 73.3823 26.9199 73.2783C27.1279 73.157 27.3008 72.9831 27.4395 72.7578C27.5781 72.5325 27.7087 72.3677 27.8301 72.2637C27.9688 72.1598 28.2112 72.1074 28.5576 72.1074C28.6616 72.1074 28.7742 72.1426 28.8955 72.2119C29.0167 72.2639 29.078 72.3243 29.0781 72.3936C29.0781 72.7749 28.6531 73.2783 27.8037 73.9023C26.9717 74.5263 26.009 74.8379 24.917 74.8379C23.565 74.8378 22.6374 74.5083 22.1348 73.8496C21.6495 73.1735 21.4072 72.1244 21.4072 70.7031V62.9023H19.9512C19.7952 62.9023 19.7168 62.8591 19.7168 62.7725C19.717 62.6686 19.7863 62.5729 19.9248 62.4863C20.3928 62.1916 20.9647 61.7756 21.6406 61.2383C22.3166 60.6836 22.8281 60.1811 23.1748 59.7305C23.4174 59.4879 23.6084 59.3663 23.7471 59.3662ZM82.2783 59.3662C82.4343 59.3662 82.5127 59.4275 82.5127 59.5488V62.123H86.1533V62.9023H82.5127V70.9639C82.53 71.0334 82.5381 71.2066 82.5381 71.4834C82.5901 72.0901 82.7117 72.5674 82.9023 72.9141C83.1104 73.2607 83.6048 73.4336 84.3848 73.4336C84.9048 73.4336 85.2605 73.3823 85.4512 73.2783C85.6591 73.157 85.832 72.9831 85.9707 72.7578C86.1094 72.5325 86.24 72.3677 86.3613 72.2637C86.5001 72.1598 86.7425 72.1074 87.0889 72.1074C87.1929 72.1074 87.3054 72.1426 87.4268 72.2119C87.548 72.2639 87.6092 72.3243 87.6094 72.3936C87.6094 72.7749 87.1844 73.2783 86.335 73.9023C85.5029 74.5263 84.5403 74.8379 83.4482 74.8379C82.0963 74.8378 81.1687 74.5083 80.666 73.8496C80.1808 73.1735 79.9385 72.1244 79.9385 70.7031V62.9023H78.4824C78.3264 62.9023 78.248 62.8591 78.248 62.7725C78.2482 62.6686 78.3175 62.5729 78.4561 62.4863C78.9241 62.1916 79.4959 61.7756 80.1719 61.2383C80.8479 60.6836 81.3594 60.1811 81.7061 59.7305C81.9487 59.4879 82.1397 59.3663 82.2783 59.3662ZM96.4727 61.7588C97.8593 61.7588 99.1245 62.0191 100.269 62.5391C101.43 63.0418 102.332 63.7873 102.974 64.7754C103.632 65.7461 103.961 66.9249 103.961 68.3115C103.961 70.4089 103.25 72.0207 101.829 73.1475C100.425 74.2742 98.6395 74.8379 96.4727 74.8379C94.2884 74.8379 92.494 74.2742 91.0898 73.1475C89.686 72.0034 88.9834 70.3915 88.9834 68.3115C88.9834 66.9421 89.313 65.7544 89.9717 64.749C90.6304 63.7436 91.5236 62.9981 92.6504 62.5127C93.7945 62.01 95.0686 61.7588 96.4727 61.7588ZM132.222 61.7588C133.21 61.7588 134.163 61.9578 135.082 62.3564C136.001 62.7552 136.746 63.2846 137.318 63.9434C137.89 64.602 138.177 65.3125 138.177 66.0752C138.177 66.4912 137.951 66.6992 137.5 66.6992H127.983C127.775 68.4499 128.053 70.0186 128.815 71.4053C129.578 72.7747 130.931 73.46 132.872 73.46C134.016 73.46 134.762 73.3123 135.108 73.0176C135.472 72.7056 135.845 72.2552 136.227 71.666C136.625 71.0768 137.076 70.7814 137.578 70.7812C137.942 70.7812 138.125 70.8508 138.125 70.9893C138.125 71.2666 137.891 71.7268 137.423 72.3682C136.955 72.9922 136.252 73.564 135.316 74.084C134.398 74.5867 133.305 74.8379 132.04 74.8379C129.821 74.8379 128.079 74.2661 126.813 73.1221C125.548 71.978 124.915 70.4518 124.915 68.5449C124.915 66.9676 125.314 65.6762 126.111 64.6709C126.926 63.6482 127.897 62.9116 129.023 62.4609C130.15 61.9929 131.216 61.7588 132.222 61.7588ZM35.0293 61.7588C35.2545 61.7589 35.3672 61.9066 35.3672 62.2012V72.3154L35.3936 72.8877C35.4109 73.3209 35.5317 73.5983 35.7568 73.7197C35.9995 73.8237 36.3381 73.8931 36.7715 73.9277C36.9965 73.9277 37.1526 73.9449 37.2393 73.9795C37.3259 73.9968 37.3691 74.0752 37.3691 74.2139C37.3691 74.4045 37.2133 74.5 36.9014 74.5H31.2324C30.9379 74.4999 30.791 74.4045 30.791 74.2139C30.7911 74.0579 30.9901 73.9624 31.3887 73.9277C31.8741 73.8757 32.2297 73.8064 32.4551 73.7197C32.6803 73.6156 32.793 73.3382 32.793 72.8877V65.7373C32.7756 64.8017 32.6458 64.2207 32.4033 63.9951C32.178 63.7698 31.7529 63.6573 31.1289 63.6572C30.7304 63.6052 30.5305 63.5097 30.5303 63.3711C30.5303 63.1631 30.7131 63.0586 31.0771 63.0586C31.9785 63.0412 32.9926 62.7297 34.1191 62.123C34.5872 61.8804 34.8906 61.7588 35.0293 61.7588ZM116.187 61.7588C117.452 61.7588 118.535 62.1921 119.437 63.0586C119.887 63.5786 120.174 64.0991 120.295 64.6191C120.416 65.1218 120.478 65.8324 120.478 66.751V72.8877C120.478 73.2864 120.59 73.5557 120.815 73.6943C121.058 73.8156 121.388 73.8931 121.804 73.9277C122.271 73.9624 122.505 74.058 122.505 74.2139C122.505 74.4046 122.349 74.5 122.037 74.5H116.369C116.057 74.5 115.9 74.4046 115.9 74.2139C115.9 74.0926 115.953 74.0142 116.057 73.9795C116.178 73.9448 116.352 73.9277 116.577 73.9277C116.976 73.893 117.296 73.8066 117.539 73.668C117.782 73.5293 117.903 73.269 117.903 72.8877V66.4912C117.903 64.047 116.967 62.8253 115.095 62.8252C114.349 62.8252 113.578 63.0674 112.78 63.5527C112 64.0208 111.428 64.6106 111.064 65.3213V72.3154C111.064 72.8181 111.108 73.1828 111.194 73.4082C111.298 73.6333 111.428 73.7722 111.584 73.8242C111.74 73.8589 112.035 73.8931 112.469 73.9277C112.694 73.9278 112.85 73.9448 112.937 73.9795C113.023 73.9969 113.066 74.0753 113.066 74.2139C113.066 74.4045 112.91 74.4999 112.599 74.5H106.93C106.635 74.5 106.487 74.4045 106.487 74.2139C106.487 74.0579 106.687 73.9624 107.086 73.9277C107.571 73.8757 107.927 73.8064 108.152 73.7197C108.377 73.6155 108.49 73.3381 108.49 72.8877V65.7373C108.473 64.8012 108.342 64.2205 108.1 63.9951C107.874 63.7698 107.45 63.6573 106.826 63.6572C106.428 63.6052 106.228 63.5097 106.228 63.3711C106.228 63.1978 106.739 62.9897 107.762 62.7471C108.802 62.5044 109.487 62.2964 109.816 62.123C110.284 61.8804 110.588 61.7588 110.727 61.7588C110.952 61.759 111.064 61.9067 111.064 62.2012V63.8906C111.654 63.2494 112.443 62.7378 113.431 62.3564C114.436 61.9579 115.355 61.7588 116.187 61.7588ZM96.4727 62.4863C93.491 62.4863 92 64.4285 92 68.3115C92 70.5129 92.4422 72.0383 93.3262 72.8877C94.2276 73.7371 95.2765 74.1621 96.4727 74.1621C97.4086 74.1621 98.2146 73.9279 98.8906 73.46C99.584 72.992 100.104 72.3246 100.451 71.458C100.815 70.574 100.997 69.5249 100.997 68.3115C100.997 66.9595 100.78 65.8501 100.347 64.9834C99.9307 64.0994 99.385 63.4663 98.709 63.085C98.0503 62.6863 97.3047 62.4863 96.4727 62.4863ZM47.9707 62.5391C46.6532 62.5391 45.4747 63.0505 44.4346 64.0732V69.1699C44.4346 70.9205 44.8074 72.1516 45.5527 72.8623C46.298 73.5555 47.1564 73.9023 48.127 73.9023C51.0391 73.9022 52.4951 72.1249 52.4951 68.5713C52.4951 64.5496 50.987 62.5391 47.9707 62.5391ZM131.936 62.4863C131.017 62.4864 130.185 62.7386 129.439 63.2412C128.712 63.744 128.226 64.6625 127.983 65.9971H134.276C134.866 65.997 135.16 65.7629 135.16 65.2949C135.16 64.9483 135.039 64.5583 134.796 64.125C134.571 63.6917 134.207 63.3098 133.704 62.9805C133.219 62.6512 132.629 62.4863 131.936 62.4863ZM33.6514 55.6738C34.1538 55.6739 34.5611 55.8127 34.873 56.0898C35.2024 56.3672 35.3672 56.7058 35.3672 57.1045C35.3671 57.4858 35.2023 57.8155 34.873 58.0928C34.5611 58.3699 34.1538 58.5087 33.6514 58.5088C33.166 58.5088 32.7581 58.3611 32.4287 58.0664C32.0994 57.7545 31.9347 57.4338 31.9346 57.1045C31.9346 56.7579 32.0995 56.4372 32.4287 56.1426C32.7581 55.8305 33.166 55.6738 33.6514 55.6738Z" fill="white"/>
<path d="M69 0C82.8071 0 94 11.1929 94 25C94 38.8071 82.8071 50 69 50C55.1929 50 44 38.8071 44 25C44 11.1929 55.1929 0 69 0ZM68.2832 13C65.7541 13 63.6319 13.7445 61.918 15.2334C60.2251 16.7012 59.3789 18.4421 59.3789 20.4551C59.379 21.5664 59.682 22.5206 60.2881 23.3174C60.9151 24.1142 61.6991 24.7428 62.6396 25.2041C63.5802 25.6654 64.6672 26.0752 65.9004 26.4316C67.1544 26.7881 68.4297 27.1445 69.7256 27.501C71.1677 27.8784 72.3489 28.3499 73.2686 28.916C74.209 29.4612 74.6787 30.3003 74.6787 31.4326C74.6787 32.5649 74.2298 33.6033 73.3311 34.5469C72.4532 35.4904 71.0318 35.9618 69.0674 35.9619C67.5625 35.9619 65.9945 35.5428 64.3643 34.7041C62.734 33.8654 61.5322 32.4602 60.7588 30.4893C60.5707 30.007 60.3194 29.7656 60.0059 29.7656C59.6923 29.7656 59.5465 29.9649 59.5674 30.3633L60.0371 36.2451V36.3711C60.0372 36.5178 60.1106 36.6227 60.2568 36.6855C60.424 36.7484 60.5916 36.7269 60.7588 36.6221C60.8014 36.6001 60.9582 36.4538 61.2285 36.1826L61.8242 35.5527C63.9771 36.5173 66.663 37 69.8818 37C72.6827 37 74.7945 36.277 76.2158 34.8301C77.658 33.3622 78.3789 31.7262 78.3789 29.9229C78.3789 28.0147 77.5741 26.6518 75.9648 25.834C74.3763 24.9952 72.4631 24.3133 70.2266 23.7891C68.7636 23.4746 67.5305 23.1705 66.5273 22.877C65.5449 22.5834 64.6773 22.1325 63.9248 21.5244C63.1933 20.8954 62.8272 20.088 62.8271 19.1025C62.8271 17.8444 63.2564 16.691 64.1133 15.6426C64.9702 14.5942 66.3077 14.0694 68.126 14.0693C70.5088 14.0693 72.2235 14.6146 73.2686 15.7051C74.3343 16.7953 74.9923 17.8124 75.2432 18.7559C75.3268 18.9655 75.4106 19.207 75.4941 19.4795C75.5986 19.731 75.7239 19.9201 75.8701 20.0459C76.0164 20.1717 76.184 20.2343 76.3721 20.2344C76.7483 20.2344 76.9055 20.0772 76.8428 19.7627V19.3535L76.3408 13.6602C76.3198 13.367 76.1737 13.2199 75.9023 13.2197C75.6306 13.2197 75.3793 13.3778 75.1494 13.6924L74.7109 14.3525C72.8925 13.4509 70.7496 13 68.2832 13Z" fill="white"/>
<path d="M367.896 59.958C367.706 60.4275 367.399 60.6758 367.078 60.6758C367.002 60.6757 366.925 60.6575 366.844 60.626L366.78 60.2422C366.857 60.2693 366.934 60.2881 367.011 60.2881C367.245 60.2881 367.466 60.1387 367.593 59.8096L367.688 59.5605L367.069 57.7324L366.871 57.3584L367.313 57.2998L367.842 58.8027L367.9 59.1318L367.995 58.8027L368.563 57.3584L368.961 57.2998L367.896 59.958ZM284.345 57.2998C284.778 57.2998 285.157 57.6967 285.157 58.4189C285.157 59.0689 284.706 59.6377 284.056 59.6377C283.956 59.6377 283.83 59.6239 283.704 59.6104V60.3242L283.749 60.6621H283.325V57.7734L283.267 57.3584L283.704 57.3086V57.5742C283.713 57.5636 283.929 57.2999 284.345 57.2998ZM315.222 57.2998C315.655 57.3 316.034 57.6969 316.034 58.4189C316.034 59.0689 315.583 59.6376 314.933 59.6377C314.833 59.6377 314.706 59.6239 314.58 59.6104V60.3242L314.626 60.6621H314.201V57.7734L314.143 57.3584L314.58 57.3086V57.5742C314.586 57.5668 314.803 57.2998 315.222 57.2998ZM262.734 59.0684C262.874 59.0684 263.006 59.1726 263.006 59.3936C263.006 59.6193 262.866 59.9991 262.536 60.2158L262.373 60.0576C262.477 59.9584 262.626 59.7554 262.626 59.6064C262.626 59.4891 262.586 59.4432 262.464 59.3936V59.3535C262.464 59.1956 262.572 59.0685 262.734 59.0684ZM243.105 57.2949C243.458 57.2949 243.783 57.4487 243.783 57.873V59.0684C243.783 59.3392 243.986 59.5791 243.986 59.5791L243.566 59.6377C243.566 59.6377 243.44 59.4661 243.436 59.2676C243.314 59.4526 242.998 59.6376 242.718 59.6377C242.411 59.6377 242.135 59.412 242.135 59.0781C242.135 58.5771 242.659 58.2432 243.403 58.2432V58.0801C243.403 57.7194 243.25 57.5978 243.065 57.5977C242.654 57.5977 242.428 57.9294 242.424 57.9355L242.221 57.6426C242.221 57.6426 242.51 57.295 243.105 57.2949ZM251.687 57.29C252.39 57.2902 252.445 58.0717 252.454 58.3516L252.35 58.4688H251.091C251.1 58.8748 251.289 59.2898 251.727 59.29C252.105 59.29 252.426 58.992 252.436 58.9834L252.499 59.3262C252.499 59.3262 252.178 59.6377 251.618 59.6377C251.027 59.6374 250.688 59.0684 250.688 58.5088C250.689 57.8724 250.996 57.29 251.687 57.29ZM272.795 57.29C273.337 57.29 273.743 57.6516 273.743 58.4189C273.743 59.0689 273.337 59.6376 272.642 59.6377C271.713 59.6377 271.69 58.5797 271.689 58.5049C271.689 57.8052 272.109 57.2901 272.795 57.29ZM280.193 57.29C280.735 57.29 281.142 57.6516 281.142 58.4189C281.142 59.0689 280.735 59.6376 280.04 59.6377C279.111 59.6377 279.088 58.5797 279.088 58.5049C279.088 57.8052 279.507 57.29 280.193 57.29ZM303.23 57.29C303.772 57.29 304.179 57.6516 304.179 58.4189C304.179 59.0689 303.772 59.6376 303.077 59.6377C302.149 59.6377 302.125 58.5797 302.125 58.5049C302.125 57.8052 302.544 57.29 303.23 57.29ZM311.069 57.29C311.611 57.29 312.018 57.6516 312.018 58.4189C312.018 59.0689 311.611 59.6377 310.916 59.6377C309.988 59.6376 309.964 58.5796 309.964 58.5049C309.964 57.8053 310.383 57.2902 311.069 57.29ZM329.513 57.29C330.054 57.29 330.461 57.6516 330.461 58.4189C330.461 59.0689 330.054 59.6376 329.359 59.6377C328.431 59.6377 328.407 58.5797 328.407 58.5049C328.407 57.8052 328.827 57.2901 329.513 57.29ZM340.215 57.2949C340.567 57.2949 340.892 57.4487 340.892 57.873V59.0684C340.892 59.337 341.092 59.5753 341.095 59.5791L340.675 59.6377C340.671 59.6322 340.548 59.4629 340.544 59.2676C340.422 59.4526 340.106 59.6377 339.826 59.6377C339.519 59.6375 339.244 59.4119 339.244 59.0781C339.244 58.5771 339.768 58.2432 340.513 58.2432V58.0801C340.513 57.7191 340.359 57.5977 340.174 57.5977C339.765 57.5978 339.539 57.9263 339.533 57.9355L339.33 57.6426C339.33 57.6426 339.619 57.2949 340.215 57.2949ZM349.166 57.29C349.87 57.2903 349.924 58.0717 349.933 58.3516L349.829 58.4688H348.57C348.579 58.8748 348.769 59.2899 349.206 59.29C349.585 59.29 349.907 58.9913 349.915 58.9834L349.979 59.3262C349.979 59.3262 349.657 59.6377 349.098 59.6377C348.507 59.6375 348.168 59.0684 348.168 58.5088C348.168 57.8724 348.475 57.29 349.166 57.29ZM371.696 57.29C372.021 57.29 372.266 57.4033 372.433 57.6064L372.193 57.9092C372.049 57.7015 371.868 57.6064 371.688 57.6064C371.277 57.6066 371.051 58.0124 371.051 58.4365C371.051 58.8518 371.245 59.29 371.692 59.29C372.069 59.29 372.359 58.9935 372.369 58.9834L372.433 59.3262C372.433 59.3262 372.144 59.6377 371.584 59.6377C370.993 59.6377 370.654 59.0685 370.654 58.5088C370.654 57.8726 371.006 57.2903 371.696 57.29ZM375.364 57.29C376.068 57.2901 376.123 58.0717 376.132 58.3516L376.027 58.4688H374.769C374.778 58.8749 374.968 59.29 375.405 59.29C375.782 59.2898 376.102 58.994 376.113 58.9834L376.177 59.3262C376.174 59.329 375.854 59.6376 375.297 59.6377C374.706 59.6377 374.366 59.0685 374.366 58.5088C374.366 57.8724 374.674 57.29 375.364 57.29ZM240.046 56.5547C240.122 56.5547 240.191 56.5685 240.227 56.582L240.267 56.9561C240.231 56.9471 240.172 56.9424 240.118 56.9424C240.01 56.9424 239.887 57.0284 239.752 57.2676L239.318 58.0439L240.312 59.5791H239.797L238.962 58.2383H238.642V59.2402L238.687 59.5791H238.235V57.0244L238.177 56.6084H238.642V57.877H238.962L239.387 57.083C239.608 56.6677 239.838 56.5547 240.046 56.5547ZM247.361 58.7031L248.26 57.3584H248.508V59.249L248.554 59.5791H248.129V58.1387L248.021 58.3418L247.344 59.3574L246.612 58.3604L246.504 58.1709V59.2402L246.549 59.5791H246.147V57.6875L246.103 57.3584H246.373L247.361 58.7031ZM256.44 59.249L256.485 59.5791H256.062V58.5996H255.023V59.2402L255.068 59.5791H254.644V57.7734L254.585 57.3584L255.023 57.3086V58.292H256.062V57.7734L256.003 57.3584L256.44 57.3086V59.249ZM259.198 58.1709H259.515C260.209 58.171 260.431 58.4778 260.431 58.875C260.431 59.272 260.209 59.579 259.515 59.5791H258.819V57.7734L258.761 57.3584L259.198 57.3086V58.1709ZM268.413 58.3105H268.657L268.978 57.7686C269.181 57.4257 269.388 57.3223 269.623 57.3223C269.682 57.3223 269.75 57.3351 269.786 57.3486L269.826 57.6826C269.794 57.6692 269.736 57.665 269.695 57.665C269.564 57.6651 269.433 57.7281 269.312 57.9355L269.005 58.4463L269.881 59.5791H269.389L268.652 58.6172H268.413V59.2402L268.459 59.5791H268.034V57.7734L267.976 57.3584L268.413 57.3086V58.3105ZM277.331 57.6738H276.604V59.2402L276.649 59.5791H276.226V57.6738H275.499V57.3584H277.331V57.6738ZM287.733 58.1709H288.05C288.745 58.1709 288.966 58.4778 288.966 58.875C288.966 59.2721 288.745 59.5791 288.05 59.5791H287.354V57.7734L287.296 57.3584L287.733 57.3086V58.1709ZM289.711 59.2402L289.756 59.5791H289.332V57.7734L289.273 57.3584L289.711 57.3086V59.2402ZM292.455 58.9922L292.568 58.7705L293.517 57.3584H293.873V59.249L293.918 59.5791H293.493V57.9453L293.381 58.166L292.433 59.5791H292.076V57.7734L292.018 57.3584L292.455 57.3086V58.9922ZM300.276 57.6738H299.369V59.2402L299.414 59.5791H298.989V57.6963L298.944 57.3584H300.276V57.6738ZM307.089 57.3311C307.594 57.313 307.893 57.5161 307.893 57.8682C307.893 58.0892 307.748 58.2198 307.612 58.3281C307.843 58.4184 308.027 58.5953 308.027 58.8887C308.027 59.2722 307.806 59.5791 307.111 59.5791H306.349V57.6875L306.304 57.3584L307.089 57.3311ZM318.61 58.9922L318.723 58.7705L319.671 57.3584H320.027V59.249L320.072 59.5791H319.648V57.9453L319.535 58.166L318.588 59.5791H318.231V57.7734L318.172 57.3584L318.61 57.3086V58.9922ZM323.855 57.6738H323.129V59.2402L323.174 59.5791H322.749V57.6738H322.022V57.3584H323.855V57.6738ZM336.127 56.5859C336.691 56.5679 337.093 56.8208 337.093 57.29C337.093 57.5383 336.871 57.7918 336.754 57.9092C337.047 58.0446 337.265 58.2294 337.265 58.6582C337.265 59.1411 336.976 59.579 336.154 59.5791H335.473V57.0244L335.414 56.6084L336.127 56.5859ZM346.033 59.5791H343.271V57.7734L343.212 57.3584L343.649 57.3086V59.2715H344.462V57.7734L344.403 57.3584L344.841 57.3086V59.2715H345.653V57.7734L345.595 57.3584L346.033 57.3086V59.5791ZM353.324 58.7031L354.223 57.3584H354.471V59.249L354.516 59.5791H354.092V58.1387L353.983 58.3418L353.306 59.3574L352.574 58.3604L352.466 58.1709V59.2402L352.512 59.5791H352.109V57.6875L352.064 57.3584H352.335L353.324 58.7031ZM360.328 57.3311C360.833 57.3131 361.131 57.5162 361.131 57.8682C361.131 58.0891 360.987 58.2198 360.852 58.3281C361.082 58.4184 361.267 58.5953 361.267 58.8887C361.266 59.2721 361.045 59.579 360.351 59.5791H359.588V57.6875L359.542 57.3584L360.328 57.3311ZM363.789 58.3105H364.033L364.354 57.7686C364.557 57.4257 364.764 57.3223 364.999 57.3223C365.058 57.3223 365.126 57.3351 365.162 57.3486L365.202 57.6826C365.17 57.6692 365.112 57.665 365.071 57.665C364.94 57.6651 364.809 57.7281 364.688 57.9355L364.381 58.4463L365.257 59.5791H364.765L364.028 58.6172H363.789V59.2402L363.835 59.5791H363.41V57.7734L363.352 57.3584L363.789 57.3086V58.3105ZM284.214 57.6201C283.915 57.6203 283.709 57.9058 283.704 57.9131V59.3125C283.695 59.3125 283.952 59.3437 284.128 59.3438C284.462 59.3438 284.737 58.933 284.737 58.459C284.737 57.9492 284.512 57.6201 284.214 57.6201ZM315.091 57.6201C314.788 57.6201 314.58 57.9131 314.58 57.9131V59.3125C314.578 59.3134 314.831 59.3438 315.005 59.3438C315.339 59.3436 315.614 58.9329 315.614 58.459C315.614 57.9494 315.388 57.6204 315.091 57.6201ZM272.714 57.5928C272.335 57.5928 272.105 57.9899 272.104 58.4639C272.104 58.9378 272.335 59.335 272.714 59.335C273.093 59.3348 273.327 58.9378 273.327 58.4639C273.327 57.99 273.093 57.5929 272.714 57.5928ZM280.112 57.5928C279.733 57.5928 279.503 57.9899 279.503 58.4639C279.503 58.9378 279.733 59.335 280.112 59.335C280.491 59.3348 280.726 58.9377 280.726 58.4639C280.726 57.99 280.491 57.5929 280.112 57.5928ZM303.149 57.5928C302.77 57.5928 302.54 57.9899 302.54 58.4639C302.54 58.9378 302.77 59.335 303.149 59.335C303.528 59.3348 303.763 58.9378 303.763 58.4639C303.763 57.99 303.528 57.5929 303.149 57.5928ZM310.988 57.5928C310.609 57.5929 310.379 57.99 310.379 58.4639C310.379 58.9378 310.609 59.3349 310.988 59.335C311.367 59.335 311.603 58.9378 311.603 58.4639C311.603 57.9899 311.367 57.5928 310.988 57.5928ZM329.432 57.5928C329.052 57.5928 328.822 57.9899 328.822 58.4639C328.822 58.9378 329.052 59.335 329.432 59.335C329.811 59.3349 330.045 58.9378 330.045 58.4639C330.045 57.99 329.811 57.5929 329.432 57.5928ZM243.403 58.5312C243.285 58.5358 242.541 58.55 242.541 59.0098C242.541 59.1542 242.646 59.3125 242.885 59.3125C243.083 59.3123 243.313 59.137 243.403 59.0332V58.5312ZM340.513 58.5312C340.395 58.5358 339.651 58.5497 339.65 59.0098C339.65 59.1541 339.754 59.3123 339.993 59.3125C340.192 59.3125 340.422 59.1371 340.513 59.0332V58.5312ZM259.198 59.2812H259.555C259.938 59.2812 260.047 59.1051 260.047 58.875C260.047 58.6448 259.938 58.4688 259.555 58.4688H259.198V59.2812ZM287.733 59.2812H288.091C288.474 59.2811 288.582 59.105 288.582 58.875C288.582 58.6449 288.474 58.4689 288.091 58.4688H287.733V59.2812ZM306.728 59.2812H307.152C307.536 59.2811 307.644 59.1046 307.644 58.915C307.643 58.6535 307.463 58.5361 307.098 58.5361H306.728V59.2812ZM359.967 59.2812H360.391C360.774 59.2812 360.883 59.1046 360.883 58.915C360.883 58.6535 360.702 58.5362 360.337 58.5361H359.967V59.2812ZM335.879 59.2539H336.208C336.691 59.2539 336.836 58.9736 336.836 58.6982C336.836 58.2878 336.596 58.1387 336.136 58.1387H335.879V59.2539ZM306.728 57.6289V58.252H307.147C307.251 58.252 307.359 58.2611 307.382 58.2656C307.459 58.1889 307.545 58.0623 307.545 57.918C307.545 57.7058 307.4 57.6111 307.048 57.6201L306.728 57.6289ZM359.967 57.6289V58.252H360.387C360.49 58.252 360.599 58.2611 360.621 58.2656C360.698 58.1889 360.783 58.0623 360.783 57.918C360.783 57.7058 360.639 57.6111 360.287 57.6201L359.967 57.6289ZM251.632 57.584C251.325 57.5842 251.176 57.8548 251.113 58.1797H252.043C252.029 57.945 251.943 57.584 251.632 57.584ZM349.111 57.584C348.805 57.5841 348.656 57.8548 348.593 58.1797H349.522C349.509 57.945 349.423 57.584 349.111 57.584ZM375.311 57.584C375.004 57.584 374.854 57.8547 374.791 58.1797H375.721C375.707 57.9451 375.622 57.5844 375.311 57.584ZM335.879 56.9248V57.8047H336.204C336.375 57.8047 336.524 57.8369 336.533 57.8369C336.61 57.7331 336.705 57.5793 336.705 57.3809C336.705 57.065 336.511 56.9161 336.073 56.916C336.015 56.916 335.947 56.9203 335.879 56.9248ZM293.602 56.5859C293.602 56.5859 293.471 57.1552 292.975 57.1553C292.478 57.1553 292.347 56.5859 292.347 56.5859L292.591 56.5049C292.591 56.5049 292.686 56.8701 292.975 56.8701C293.263 56.8701 293.358 56.5049 293.358 56.5049L293.602 56.5859Z" fill="white"/>
<path d="M286.979 33.8467C288.436 33.8467 289.657 34.1502 290.646 34.7568C291.651 35.3636 292.396 36.1613 292.882 37.1494C293.367 38.1374 293.61 39.2037 293.61 40.3477C293.61 42.0463 293.038 43.5286 291.894 44.7939C290.749 46.0591 288.999 46.6914 286.642 46.6914C285.099 46.6914 283.808 46.2754 282.768 45.4434H282.611V50.0986L282.637 50.6699C282.671 51.0513 282.759 51.3035 282.897 51.4248C283.036 51.5459 283.365 51.6326 283.885 51.6846C284.11 51.6846 284.284 51.7017 284.405 51.7363C284.527 51.771 284.587 51.8494 284.587 51.9707C284.587 52.1438 284.44 52.2304 284.146 52.2305H278.555C278.277 52.2305 278.139 52.1439 278.139 51.9707C278.139 51.8842 278.173 51.8147 278.242 51.7627C278.312 51.728 278.416 51.7019 278.555 51.6846C278.693 51.6846 278.815 51.6755 278.919 51.6582C279.699 51.6235 280.089 51.2939 280.089 50.6699V37.7471C280.089 37.123 280.037 36.6719 279.933 36.3945C279.846 36.1174 279.621 35.9353 279.257 35.8486C279.136 35.814 278.954 35.7878 278.711 35.7705C278.468 35.7359 278.26 35.7016 278.087 35.667C277.931 35.6151 277.853 35.5283 277.853 35.4072C277.853 35.2512 277.957 35.1638 278.165 35.1465C278.373 35.1118 278.711 35.0686 279.179 35.0166C279.889 34.8953 280.687 34.6009 281.571 34.1328C281.918 33.9423 282.16 33.8468 282.299 33.8467C282.507 33.8467 282.611 33.9944 282.611 34.2891V35.2764C283.79 34.3231 285.246 33.8467 286.979 33.8467ZM245.876 27.2939C247.921 27.294 249.698 27.6668 251.206 28.4121L251.57 27.8662C251.761 27.6062 251.969 27.4756 252.194 27.4756C252.42 27.4756 252.541 27.5972 252.559 27.8398L252.975 32.5469V32.8848C253.026 33.1446 252.896 33.2744 252.584 33.2744C252.428 33.2743 252.289 33.2221 252.168 33.1182C252.047 33.0142 251.943 32.8582 251.856 32.6504C251.787 32.4252 251.718 32.226 251.648 32.0527C251.44 31.2727 250.894 30.4317 250.01 29.5303C249.143 28.629 247.722 28.1778 245.746 28.1777C244.238 28.1777 243.128 28.6118 242.417 29.4785C241.706 30.3452 241.352 31.2989 241.352 32.3389C241.352 33.1534 241.655 33.8209 242.262 34.3408C242.886 34.8434 243.605 35.2163 244.42 35.459C245.252 35.7016 246.275 35.9529 247.488 36.2129C249.343 36.6462 250.929 37.21 252.246 37.9033C253.581 38.5794 254.249 39.7058 254.249 41.2832C254.249 42.774 253.65 44.1264 252.454 45.3398C251.275 46.5358 249.525 47.1337 247.202 47.1338C244.533 47.1338 242.305 46.7349 240.52 45.9375L240.025 46.458C239.8 46.6834 239.669 46.8049 239.635 46.8223C239.496 46.9087 239.357 46.926 239.219 46.874C239.098 46.8221 239.037 46.7353 239.037 46.6143V46.5098L238.647 41.6475C238.63 41.3182 238.751 41.1534 239.011 41.1533C239.271 41.1533 239.479 41.3526 239.635 41.751C240.276 43.3803 241.273 44.5419 242.625 45.2354C243.977 45.9287 245.277 46.2753 246.525 46.2754C248.155 46.2754 249.334 45.8855 250.062 45.1055C250.808 44.3255 251.181 43.4672 251.181 42.5312C251.181 41.5953 250.79 40.9018 250.01 40.4512C249.247 39.9833 248.268 39.5932 247.072 39.2812C245.997 38.9866 244.94 38.6922 243.899 38.3975C242.877 38.1028 241.975 37.7642 241.195 37.3828C240.415 37.0015 239.765 36.4818 239.245 35.8232C238.742 35.1646 238.491 34.3756 238.491 33.457C238.491 31.7929 239.194 30.3531 240.598 29.1396C242.019 27.9092 243.779 27.2939 245.876 27.2939ZM304.407 27.2939C306.453 27.294 308.229 27.6668 309.737 28.4121L310.102 27.8662C310.292 27.6062 310.5 27.4756 310.726 27.4756C310.951 27.4756 311.072 27.5972 311.09 27.8398L311.506 32.5469V32.8848C311.558 33.1446 311.427 33.2744 311.115 33.2744C310.959 33.2743 310.82 33.2221 310.699 33.1182C310.578 33.0142 310.474 32.8582 310.388 32.6504C310.318 32.4252 310.249 32.226 310.18 32.0527C309.972 31.2727 309.425 30.4317 308.541 29.5303C307.674 28.629 306.253 28.1778 304.277 28.1777C302.769 28.1777 301.659 28.6118 300.948 29.4785C300.238 30.3452 299.883 31.2989 299.883 32.3389C299.883 33.1534 300.186 33.8209 300.793 34.3408C301.417 34.8434 302.137 35.2163 302.951 35.459C303.783 35.7016 304.806 35.9529 306.02 36.2129C307.874 36.6462 309.46 37.21 310.777 37.9033C312.112 38.5794 312.779 39.7058 312.779 41.2832C312.779 42.774 312.181 44.1264 310.985 45.3398C309.807 46.5358 308.056 47.1337 305.733 47.1338C303.064 47.1338 300.836 46.7349 299.051 45.9375L298.557 46.458C298.331 46.6834 298.201 46.8049 298.166 46.8223C298.027 46.9087 297.889 46.926 297.75 46.874C297.629 46.8221 297.568 46.7353 297.568 46.6143V46.5098L297.179 41.6475C297.161 41.3182 297.282 41.1534 297.542 41.1533C297.802 41.1533 298.01 41.3526 298.166 41.751C298.807 43.3803 299.804 44.5419 301.156 45.2354C302.508 45.9287 303.809 46.2753 305.057 46.2754C306.686 46.2754 307.866 45.8855 308.594 45.1055C309.339 44.3255 309.712 43.4672 309.712 42.5312C309.712 41.5953 309.321 40.9018 308.541 40.4512C307.778 39.9833 306.799 39.5932 305.604 39.2812C304.529 38.9866 303.471 38.6922 302.431 38.3975C301.408 38.1028 300.507 37.7642 299.727 37.3828C298.947 37.0015 298.296 36.4818 297.776 35.8232C297.274 35.1646 297.023 34.3756 297.022 33.457C297.022 31.7929 297.724 30.3531 299.128 29.1396C300.549 27.9089 302.31 27.2939 304.407 27.2939ZM261.924 31.4541C262.08 31.4541 262.158 31.5154 262.158 31.6367V34.2109H265.799V34.9902H262.158V43.0518C262.175 43.1213 262.184 43.2945 262.184 43.5713C262.236 44.178 262.357 44.6553 262.548 45.002C262.756 45.3486 263.25 45.5215 264.03 45.5215C264.55 45.5215 264.906 45.4702 265.097 45.3662C265.305 45.2449 265.478 45.071 265.616 44.8457C265.755 44.6203 265.885 44.4556 266.007 44.3516C266.146 44.2477 266.388 44.1953 266.734 44.1953C266.838 44.1953 266.951 44.2305 267.072 44.2998C267.193 44.3518 267.255 44.4122 267.255 44.4814C267.255 44.8628 266.83 45.3662 265.98 45.9902C265.148 46.6142 264.186 46.9258 263.094 46.9258C261.742 46.9257 260.814 46.5962 260.312 45.9375C259.826 45.2614 259.584 44.2123 259.584 42.791V34.9902H258.128C257.972 34.9902 257.894 34.947 257.894 34.8604C257.894 34.7565 257.963 34.6608 258.102 34.5742C258.57 34.2795 259.141 33.8635 259.817 33.3262C260.493 32.7715 261.005 32.269 261.352 31.8184C261.594 31.5758 261.785 31.4542 261.924 31.4541ZM320.455 31.4541C320.611 31.4541 320.689 31.5154 320.689 31.6367V34.2109H324.33V34.9902H320.689V43.0518C320.707 43.1213 320.715 43.2945 320.715 43.5713C320.767 44.178 320.888 44.6553 321.079 45.002C321.287 45.3486 321.782 45.5215 322.562 45.5215C323.082 45.5215 323.437 45.4702 323.628 45.3662C323.836 45.2449 324.009 45.071 324.147 44.8457C324.286 44.6203 324.417 44.4556 324.538 44.3516C324.677 44.2477 324.919 44.1953 325.266 44.1953C325.37 44.1953 325.482 44.2305 325.604 44.2998C325.725 44.3518 325.786 44.4122 325.786 44.4814C325.786 44.8628 325.361 45.3662 324.512 45.9902C323.68 46.6142 322.717 46.9258 321.625 46.9258C320.273 46.9257 319.345 46.5962 318.843 45.9375C318.358 45.2614 318.115 44.2123 318.115 42.791V34.9902H316.659C316.503 34.9902 316.425 34.947 316.425 34.8604C316.425 34.7565 316.494 34.6608 316.633 34.5742C317.101 34.2795 317.673 33.8635 318.349 33.3262C319.025 32.7715 319.536 32.269 319.883 31.8184C320.125 31.5757 320.316 31.4542 320.455 31.4541ZM334.649 33.8467C336.036 33.8467 337.301 34.107 338.445 34.627C339.607 35.1297 340.509 35.8752 341.15 36.8633C341.809 37.834 342.138 39.0128 342.138 40.3994C342.138 42.4968 341.427 44.1086 340.006 45.2354C338.602 46.3621 336.816 46.9258 334.649 46.9258C332.465 46.9258 330.671 46.3621 329.267 45.2354C327.863 44.0913 327.16 42.4794 327.16 40.3994C327.16 39.03 327.49 37.8423 328.148 36.8369C328.807 35.8315 329.7 35.086 330.827 34.6006C331.971 34.0979 333.245 33.8467 334.649 33.8467ZM370.398 33.8467C371.386 33.8467 372.34 34.0457 373.259 34.4443C374.178 34.843 374.923 35.3725 375.495 36.0312C376.067 36.6899 376.354 37.4004 376.354 38.1631C376.353 38.5791 376.127 38.7871 375.677 38.7871H366.16C365.952 40.5378 366.23 42.1065 366.992 43.4932C367.755 44.8626 369.107 45.5479 371.049 45.5479C372.193 45.5478 372.938 45.4002 373.285 45.1055C373.649 44.7935 374.022 44.3431 374.403 43.7539C374.802 43.1647 375.252 42.8693 375.755 42.8691C376.119 42.8691 376.301 42.9387 376.302 43.0771C376.302 43.3545 376.068 43.8147 375.6 44.4561C375.132 45.0801 374.429 45.6519 373.493 46.1719C372.574 46.6746 371.482 46.9258 370.217 46.9258C367.998 46.9258 366.256 46.354 364.99 45.21C363.725 44.0658 363.092 42.5397 363.092 40.6328C363.092 39.0555 363.491 37.7641 364.288 36.7588C365.103 35.7361 366.074 34.9995 367.2 34.5488C368.327 34.0808 369.393 33.8467 370.398 33.8467ZM273.206 33.8467C273.431 33.8468 273.544 33.9945 273.544 34.2891V44.4033L273.57 44.9756C273.588 45.4087 273.708 45.6862 273.934 45.8076C274.176 45.9116 274.515 45.981 274.948 46.0156C275.173 46.0156 275.329 46.0328 275.416 46.0674C275.503 46.0847 275.546 46.1631 275.546 46.3018C275.546 46.4924 275.39 46.5879 275.078 46.5879H269.409C269.115 46.5878 268.968 46.4924 268.968 46.3018C268.968 46.1458 269.167 46.0503 269.565 46.0156C270.051 45.9636 270.406 45.8943 270.632 45.8076C270.857 45.7035 270.97 45.4261 270.97 44.9756V37.8252C270.952 36.8896 270.823 36.3086 270.58 36.083C270.355 35.8577 269.93 35.7451 269.306 35.7451C268.907 35.6931 268.707 35.5975 268.707 35.459C268.707 35.251 268.89 35.1465 269.254 35.1465C270.155 35.1291 271.169 34.8176 272.296 34.2109C272.764 33.9682 273.067 33.8467 273.206 33.8467ZM354.363 33.8467C355.629 33.8467 356.712 34.28 357.613 35.1465C358.064 35.6665 358.35 36.187 358.472 36.707C358.593 37.2097 358.654 37.9203 358.654 38.8389V44.9756C358.654 45.3743 358.767 45.6435 358.992 45.7822C359.235 45.9035 359.565 45.981 359.98 46.0156C360.448 46.0503 360.682 46.1458 360.682 46.3018C360.682 46.4924 360.526 46.5879 360.214 46.5879H354.546C354.234 46.5879 354.077 46.4924 354.077 46.3018C354.077 46.1805 354.129 46.102 354.233 46.0674C354.355 46.0327 354.529 46.0156 354.754 46.0156C355.152 45.9809 355.473 45.8945 355.716 45.7559C355.958 45.6172 356.08 45.3569 356.08 44.9756V38.5791C356.08 36.1349 355.144 34.9132 353.271 34.9131C352.526 34.9131 351.754 35.1553 350.957 35.6406C350.177 36.1087 349.605 36.6984 349.241 37.4092V44.4033C349.241 44.906 349.284 45.2707 349.371 45.4961C349.475 45.7212 349.605 45.8601 349.761 45.9121C349.917 45.9468 350.212 45.981 350.646 46.0156C350.871 46.0156 351.027 46.0327 351.113 46.0674C351.2 46.0848 351.243 46.1632 351.243 46.3018C351.243 46.4924 351.087 46.5878 350.775 46.5879H345.106C344.812 46.5879 344.664 46.4924 344.664 46.3018C344.664 46.1458 344.864 46.0503 345.263 46.0156C345.748 45.9636 346.104 45.8943 346.329 45.8076C346.554 45.7034 346.667 45.426 346.667 44.9756V37.8252C346.65 36.8891 346.519 36.3084 346.276 36.083C346.051 35.8577 345.627 35.7452 345.003 35.7451C344.604 35.6931 344.405 35.5975 344.404 35.459C344.404 35.2856 344.916 35.0776 345.938 34.835C346.979 34.5923 347.664 34.3843 347.993 34.2109C348.461 33.9683 348.765 33.8467 348.903 33.8467C349.128 33.8469 349.241 33.9946 349.241 34.2891V35.9785C349.831 35.3373 350.619 34.8256 351.607 34.4443C352.613 34.0457 353.531 33.8467 354.363 33.8467ZM334.649 34.5742C331.668 34.5742 330.177 36.5164 330.177 40.3994C330.177 42.6008 330.619 44.1262 331.503 44.9756C332.404 45.825 333.453 46.25 334.649 46.25C335.585 46.25 336.391 46.0158 337.067 45.5479C337.761 45.0798 338.281 44.4125 338.628 43.5459C338.992 42.6618 339.174 41.6128 339.174 40.3994C339.174 39.0474 338.957 37.938 338.523 37.0713C338.107 36.1873 337.562 35.5542 336.886 35.1729C336.227 34.7741 335.481 34.5742 334.649 34.5742ZM286.147 34.627C284.83 34.627 283.651 35.1384 282.611 36.1611V41.2578C282.611 43.0084 282.984 44.2395 283.729 44.9502C284.475 45.6433 285.333 45.9902 286.304 45.9902C289.216 45.9901 290.672 44.2128 290.672 40.6592C290.672 36.6375 289.164 34.627 286.147 34.627ZM370.112 34.5742C369.194 34.5743 368.362 34.8265 367.616 35.3291C366.888 35.8319 366.403 36.7504 366.16 38.085H372.453C373.042 38.0849 373.337 37.8508 373.337 37.3828C373.337 37.0361 373.215 36.6462 372.973 36.2129C372.747 35.7795 372.384 35.3977 371.881 35.0684C371.396 34.7391 370.806 34.5742 370.112 34.5742ZM271.828 27.7617C272.331 27.7618 272.738 27.9005 273.05 28.1777C273.379 28.4551 273.544 28.7937 273.544 29.1924C273.544 29.5736 273.379 29.9034 273.05 30.1807C272.738 30.4578 272.331 30.5966 271.828 30.5967C271.343 30.5967 270.935 30.449 270.605 30.1543C270.276 29.8424 270.111 29.5217 270.111 29.1924C270.111 28.8458 270.276 28.5251 270.605 28.2305C270.935 27.9184 271.343 27.7617 271.828 27.7617Z" fill="white"/>
<path d="M203.177 19.2939C216.984 19.2939 228.177 30.4868 228.177 44.2939C228.177 58.1011 216.984 69.2939 203.177 69.2939C189.37 69.2939 178.177 58.1011 178.177 44.2939C178.177 30.4868 189.37 19.2939 203.177 19.2939ZM202.46 32.2939C199.931 32.2939 197.809 33.0385 196.095 34.5273C194.402 35.9952 193.556 37.736 193.556 39.749C193.556 40.8603 193.859 41.8145 194.465 42.6113C195.092 43.4081 195.876 44.0367 196.816 44.498C197.757 44.9594 198.844 45.3691 200.077 45.7256C201.331 46.082 202.607 46.4385 203.902 46.7949C205.344 47.1724 206.526 47.6438 207.445 48.21C208.386 48.7552 208.855 49.5943 208.855 50.7266C208.855 51.8589 208.407 52.8972 207.508 53.8408C206.63 54.7843 205.209 55.2558 203.244 55.2559C201.739 55.2559 200.171 54.8367 198.541 53.998C196.911 53.1593 195.709 51.7541 194.936 49.7832C194.747 49.3009 194.496 49.0596 194.183 49.0596C193.869 49.0596 193.723 49.2588 193.744 49.6572L194.214 55.5391V55.665C194.214 55.8117 194.287 55.9166 194.434 55.9795C194.601 56.0423 194.768 56.0208 194.936 55.916C194.978 55.894 195.135 55.7478 195.405 55.4766L196.001 54.8467C198.154 55.8113 200.84 56.2939 204.059 56.2939C206.859 56.2939 208.971 55.5709 210.393 54.124C211.835 52.6562 212.556 51.0201 212.556 49.2168C212.556 47.3087 211.751 45.9458 210.142 45.1279C208.553 44.2891 206.64 43.6073 204.403 43.083C202.94 42.7685 201.707 42.4644 200.704 42.1709C199.722 41.8773 198.854 41.4265 198.102 40.8184C197.37 40.1893 197.004 39.3819 197.004 38.3965C197.004 37.1383 197.433 35.985 198.29 34.9365C199.147 33.8881 200.484 33.3633 202.303 33.3633C204.686 33.3633 206.4 33.9086 207.445 34.999C208.511 36.0892 209.169 37.1063 209.42 38.0498C209.504 38.2594 209.587 38.5009 209.671 38.7734C209.775 39.0249 209.901 39.214 210.047 39.3398C210.193 39.4656 210.361 39.5283 210.549 39.5283C210.925 39.5283 211.082 39.3712 211.02 39.0566V38.6475L210.518 32.9541C210.497 32.661 210.35 32.5138 210.079 32.5137C209.807 32.5137 209.556 32.6718 209.326 32.9863L208.888 33.6465C207.069 32.7448 204.926 32.294 202.46 32.2939Z" fill="white"/>
<path d="M546.072 60.2671C545.883 60.7365 545.575 60.9849 545.255 60.9849C545.178 60.9848 545.102 60.9666 545.021 60.9351L544.957 60.5513C545.034 60.5783 545.111 60.5972 545.188 60.5972C545.422 60.5972 545.643 60.4478 545.77 60.1187L545.864 59.8696L545.246 58.0415L545.048 57.6675L545.49 57.6089L546.019 59.1118L546.077 59.4409L546.172 59.1118L546.74 57.6675L547.138 57.6089L546.072 60.2671ZM462.521 57.6089C462.955 57.6089 463.334 58.0058 463.334 58.728C463.334 59.378 462.882 59.9468 462.232 59.9468C462.133 59.9467 462.007 59.933 461.881 59.9194V60.6333L461.926 60.9712H461.502V58.0825L461.443 57.6675L461.881 57.6177V57.8833C461.889 57.8727 462.106 57.609 462.521 57.6089ZM493.398 57.6089C493.832 57.6091 494.211 58.006 494.211 58.728C494.211 59.3779 493.759 59.9467 493.109 59.9468C493.01 59.9468 492.883 59.933 492.757 59.9194V60.6333L492.803 60.9712H492.378V58.0825L492.319 57.6675L492.757 57.6177V57.8833C492.763 57.8759 492.98 57.6089 493.398 57.6089ZM440.911 59.3774C441.051 59.3774 441.183 59.4817 441.183 59.7026C441.183 59.9283 441.042 60.3082 440.713 60.5249L440.55 60.3667C440.654 60.2675 440.802 60.0644 440.803 59.9155C440.803 59.7982 440.763 59.7523 440.641 59.7026V59.6626C440.641 59.5047 440.749 59.3776 440.911 59.3774ZM421.282 57.604C421.634 57.604 421.96 57.7578 421.96 58.1821V59.3774C421.96 59.6483 422.163 59.8882 422.163 59.8882L421.743 59.9468C421.743 59.9468 421.617 59.7752 421.612 59.5767C421.49 59.7617 421.174 59.9466 420.895 59.9468C420.588 59.9468 420.312 59.7211 420.312 59.3872C420.312 58.8862 420.835 58.5523 421.58 58.5522V58.3892C421.58 58.0284 421.427 57.9069 421.242 57.9067C420.831 57.9067 420.605 58.2384 420.601 58.2446L420.397 57.9517C420.397 57.9517 420.687 57.6041 421.282 57.604ZM429.863 57.5991C430.567 57.5993 430.622 58.3808 430.631 58.6606L430.526 58.7778H429.268C429.277 59.1839 429.466 59.5989 429.903 59.5991C430.281 59.5991 430.603 59.3011 430.612 59.2925L430.676 59.6353C430.676 59.6353 430.355 59.9468 429.795 59.9468C429.204 59.9465 428.865 59.3775 428.865 58.8179C428.865 58.1815 429.173 57.5991 429.863 57.5991ZM450.972 57.5991C451.513 57.5991 451.92 57.9606 451.92 58.728C451.92 59.378 451.513 59.9467 450.818 59.9468C449.89 59.9468 449.866 58.8887 449.866 58.814C449.866 58.1143 450.286 57.5991 450.972 57.5991ZM458.37 57.5991C458.912 57.5991 459.318 57.9607 459.318 58.728C459.318 59.3779 458.912 59.9467 458.217 59.9468C457.288 59.9468 457.265 58.8887 457.265 58.814C457.265 58.1143 457.684 57.5991 458.37 57.5991ZM481.407 57.5991C481.949 57.5991 482.355 57.9607 482.355 58.728C482.355 59.3779 481.949 59.9467 481.254 59.9468C480.325 59.9468 480.302 58.8887 480.302 58.814C480.302 58.1143 480.721 57.5991 481.407 57.5991ZM489.246 57.5991C489.788 57.5991 490.194 57.9606 490.194 58.728C490.194 59.378 489.788 59.9468 489.093 59.9468C488.164 59.9466 488.141 58.8887 488.141 58.814C488.141 58.1144 488.56 57.5993 489.246 57.5991ZM507.689 57.5991C508.231 57.5991 508.638 57.9606 508.638 58.728C508.638 59.378 508.231 59.9467 507.536 59.9468C506.607 59.9468 506.584 58.8887 506.584 58.814C506.584 58.1143 507.003 57.5991 507.689 57.5991ZM518.392 57.604C518.744 57.604 519.068 57.7578 519.068 58.1821V59.3774C519.068 59.6461 519.268 59.8844 519.271 59.8882L518.852 59.9468C518.848 59.9412 518.725 59.7719 518.721 59.5767C518.599 59.7616 518.283 59.9468 518.003 59.9468C517.696 59.9466 517.421 59.7209 517.421 59.3872C517.421 58.8862 517.945 58.5523 518.689 58.5522V58.3892C518.689 58.0282 518.536 57.9067 518.351 57.9067C517.941 57.9069 517.716 58.2354 517.71 58.2446L517.507 57.9517C517.507 57.9517 517.796 57.604 518.392 57.604ZM527.343 57.5991C528.047 57.5993 528.1 58.3808 528.109 58.6606L528.006 58.7778H526.747C526.756 59.1839 526.945 59.5989 527.383 59.5991C527.761 59.5991 528.083 59.3004 528.092 59.2925L528.155 59.6353C528.155 59.6353 527.834 59.9468 527.274 59.9468C526.683 59.9465 526.345 59.3775 526.345 58.8179C526.345 58.1815 526.652 57.5991 527.343 57.5991ZM549.873 57.5991C550.198 57.5991 550.442 57.7124 550.609 57.9155L550.37 58.2183C550.226 58.0106 550.045 57.9155 549.864 57.9155C549.454 57.9157 549.228 58.3215 549.228 58.7456C549.228 59.1609 549.422 59.5991 549.869 59.5991C550.246 59.599 550.536 59.3025 550.546 59.2925L550.609 59.6353C550.609 59.6353 550.32 59.9467 549.761 59.9468C549.169 59.9468 548.831 59.3776 548.831 58.8179C548.831 58.1817 549.183 57.5994 549.873 57.5991ZM553.541 57.5991C554.245 57.5991 554.3 58.3808 554.309 58.6606L554.204 58.7778H552.945C552.954 59.184 553.144 59.5991 553.582 59.5991C553.959 59.5989 554.279 59.3031 554.29 59.2925L554.354 59.6353C554.351 59.638 554.031 59.9467 553.474 59.9468C552.882 59.9468 552.543 59.3776 552.543 58.8179C552.543 58.1815 552.85 57.5991 553.541 57.5991ZM418.223 56.8638C418.299 56.8638 418.367 56.8776 418.403 56.8911L418.443 57.2651C418.407 57.2562 418.349 57.2515 418.295 57.2515C418.187 57.2515 418.064 57.3375 417.929 57.5767L417.495 58.353L418.488 59.8882H417.974L417.139 58.5474H416.818V59.5493L416.863 59.8882H416.412V57.3335L416.354 56.9175H416.818V58.186H417.139L417.563 57.3921C417.785 56.9768 418.015 56.8638 418.223 56.8638ZM425.538 59.0122L426.437 57.6675H426.685V59.5581L426.73 59.8882H426.306V58.4478L426.197 58.6509L425.521 59.6665L424.789 58.6694L424.681 58.48V59.5493L424.726 59.8882H424.324V57.9966L424.279 57.6675H424.55L425.538 59.0122ZM434.617 59.5581L434.662 59.8882H434.238V58.9087H433.2V59.5493L433.245 59.8882H432.82V58.0825L432.762 57.6675L433.2 57.6177V58.6011H434.238V58.0825L434.18 57.6675L434.617 57.6177V59.5581ZM437.375 58.48H437.691C438.386 58.4801 438.607 58.7869 438.607 59.1841C438.607 59.5811 438.386 59.8881 437.691 59.8882H436.996V58.0825L436.938 57.6675L437.375 57.6177V58.48ZM446.59 58.6196H446.834L447.154 58.0776C447.357 57.7348 447.565 57.6314 447.8 57.6313C447.858 57.6313 447.927 57.6442 447.963 57.6577L448.003 57.9917C447.971 57.9783 447.913 57.9741 447.872 57.9741C447.741 57.9742 447.61 58.0372 447.488 58.2446L447.182 58.7554L448.058 59.8882H447.565L446.829 58.9263H446.59V59.5493L446.636 59.8882H446.211V58.0825L446.152 57.6675L446.59 57.6177V58.6196ZM455.508 57.9829H454.781V59.5493L454.826 59.8882H454.402V57.9829H453.676V57.6675H455.508V57.9829ZM465.91 58.48H466.227C466.922 58.48 467.143 58.7868 467.143 59.1841C467.142 59.5812 466.922 59.8882 466.227 59.8882H465.531V58.0825L465.473 57.6675L465.91 57.6177V58.48ZM467.888 59.5493L467.933 59.8882H467.509V58.0825L467.45 57.6675L467.888 57.6177V59.5493ZM470.632 59.3013L470.745 59.0796L471.693 57.6675H472.05V59.5581L472.095 59.8882H471.67V58.2544L471.558 58.4751L470.609 59.8882H470.253V58.0825L470.194 57.6675L470.632 57.6177V59.3013ZM478.453 57.9829H477.546V59.5493L477.591 59.8882H477.166V58.0054L477.121 57.6675H478.453V57.9829ZM485.266 57.6401C485.771 57.6221 486.069 57.8252 486.069 58.1772C486.069 58.3983 485.924 58.5289 485.789 58.6372C486.019 58.7275 486.204 58.9043 486.204 59.1978C486.204 59.5813 485.983 59.8882 485.288 59.8882H484.525V57.9966L484.48 57.6675L485.266 57.6401ZM496.787 59.3013L496.899 59.0796L497.848 57.6675H498.204V59.5581L498.249 59.8882H497.825V58.2544L497.712 58.4751L496.765 59.8882H496.408V58.0825L496.349 57.6675L496.787 57.6177V59.3013ZM502.032 57.9829H501.306V59.5493L501.351 59.8882H500.926V57.9829H500.199V57.6675H502.032V57.9829ZM514.304 56.895C514.868 56.877 515.269 57.1298 515.27 57.5991C515.27 57.8474 515.048 58.1009 514.931 58.2183C515.224 58.3537 515.441 58.5385 515.441 58.9673C515.441 59.4502 515.152 59.8881 514.331 59.8882H513.649V57.3335L513.591 56.9175L514.304 56.895ZM524.21 59.8882H521.447V58.0825L521.389 57.6675L521.826 57.6177V59.5806H522.639V58.0825L522.58 57.6675L523.018 57.6177V59.5806H523.83V58.0825L523.771 57.6675L524.21 57.6177V59.8882ZM531.501 59.0122L532.399 57.6675H532.647V59.5581L532.692 59.8882H532.269V58.4478L532.16 58.6509L531.482 59.6665L530.751 58.6694L530.643 58.48V59.5493L530.688 59.8882H530.286V57.9966L530.241 57.6675H530.512L531.501 59.0122ZM538.505 57.6401C539.01 57.6222 539.308 57.8252 539.308 58.1772C539.308 58.3982 539.164 58.5289 539.028 58.6372C539.259 58.7275 539.443 58.9044 539.443 59.1978C539.443 59.5812 539.222 59.8881 538.527 59.8882H537.765V57.9966L537.719 57.6675L538.505 57.6401ZM541.966 58.6196H542.21L542.53 58.0776C542.733 57.7348 542.941 57.6314 543.176 57.6313C543.234 57.6313 543.303 57.6442 543.339 57.6577L543.379 57.9917C543.347 57.9783 543.289 57.9741 543.248 57.9741C543.117 57.9742 542.986 58.0372 542.864 58.2446L542.558 58.7554L543.434 59.8882H542.941L542.205 58.9263H541.966V59.5493L542.012 59.8882H541.587V58.0825L541.528 57.6675L541.966 57.6177V58.6196ZM462.391 57.9292C462.092 57.9294 461.886 58.2149 461.881 58.2222V59.6216C461.872 59.6216 462.129 59.6528 462.305 59.6528C462.639 59.6528 462.914 59.242 462.914 58.7681C462.914 58.2582 462.688 57.9292 462.391 57.9292ZM493.268 57.9292C492.965 57.9292 492.757 58.2222 492.757 58.2222V59.6216C492.755 59.6224 493.008 59.6528 493.182 59.6528C493.516 59.6527 493.791 59.2419 493.791 58.7681C493.791 58.2585 493.565 57.9295 493.268 57.9292ZM450.891 57.9019C450.511 57.9019 450.281 58.299 450.281 58.7729C450.281 59.2469 450.511 59.644 450.891 59.644C451.27 59.6439 451.504 59.2469 451.504 58.7729C451.504 58.2991 451.27 57.902 450.891 57.9019ZM458.289 57.9019C457.91 57.9019 457.68 58.299 457.68 58.7729C457.68 59.2469 457.91 59.644 458.289 59.644C458.668 59.6439 458.902 59.2468 458.902 58.7729C458.902 58.2991 458.668 57.902 458.289 57.9019ZM481.326 57.9019C480.947 57.9019 480.717 58.299 480.717 58.7729C480.717 59.2469 480.947 59.644 481.326 59.644C481.705 59.6439 481.939 59.2468 481.939 58.7729C481.939 58.2991 481.705 57.902 481.326 57.9019ZM489.165 57.9019C488.786 57.9019 488.556 58.2991 488.556 58.7729C488.556 59.2469 488.786 59.644 489.165 59.644C489.544 59.644 489.779 59.2469 489.779 58.7729C489.779 58.299 489.544 57.9019 489.165 57.9019ZM507.608 57.9019C507.229 57.9019 506.999 58.299 506.999 58.7729C506.999 59.2469 507.229 59.644 507.608 59.644C507.987 59.6439 508.222 59.2469 508.222 58.7729C508.222 58.2991 507.987 57.902 507.608 57.9019ZM421.58 58.8403C421.462 58.8449 420.718 58.8591 420.718 59.3188C420.718 59.4633 420.822 59.6216 421.062 59.6216C421.26 59.6214 421.49 59.4461 421.58 59.3423V58.8403ZM518.689 58.8403C518.572 58.8448 517.828 58.8588 517.827 59.3188C517.827 59.4632 517.931 59.6214 518.17 59.6216C518.368 59.6216 518.599 59.4461 518.689 59.3423V58.8403ZM437.375 59.5903H437.731C438.115 59.5903 438.224 59.4142 438.224 59.1841C438.224 58.9539 438.115 58.7778 437.731 58.7778H437.375V59.5903ZM465.91 59.5903H466.268C466.651 59.5902 466.759 59.4141 466.759 59.1841C466.759 58.9539 466.651 58.7779 466.268 58.7778H465.91V59.5903ZM484.904 59.5903H485.329C485.712 59.5902 485.82 59.4136 485.82 59.2241C485.82 58.9625 485.64 58.8452 485.274 58.8452H484.904V59.5903ZM538.144 59.5903H538.567C538.951 59.5903 539.06 59.4137 539.06 59.2241C539.059 58.9626 538.879 58.8452 538.514 58.8452H538.144V59.5903ZM514.056 59.563H514.385C514.868 59.563 515.013 59.2827 515.013 59.0073C515.013 58.5969 514.773 58.4478 514.312 58.4478H514.056V59.563ZM484.904 57.938V58.561H485.324C485.428 58.561 485.535 58.5702 485.559 58.5747C485.635 58.498 485.722 58.3714 485.722 58.2271C485.722 58.0149 485.577 57.9202 485.225 57.9292L484.904 57.938ZM538.144 57.938V58.561H538.563C538.667 58.5611 538.775 58.5702 538.798 58.5747C538.875 58.498 538.96 58.3714 538.96 58.2271C538.96 58.0149 538.816 57.9202 538.464 57.9292L538.144 57.938ZM429.809 57.8931C429.502 57.8932 429.353 58.1639 429.29 58.4888H430.22C430.206 58.254 430.12 57.8931 429.809 57.8931ZM527.288 57.8931C526.981 57.8932 526.833 58.1638 526.77 58.4888H527.699C527.686 58.254 527.6 57.8931 527.288 57.8931ZM553.487 57.8931C553.18 57.8931 553.031 58.1638 552.968 58.4888H553.897C553.884 58.2542 553.798 57.8934 553.487 57.8931ZM514.056 57.2339V58.1138H514.381C514.552 58.1138 514.701 58.146 514.71 58.146C514.787 58.0422 514.882 57.8884 514.882 57.6899C514.882 57.3741 514.688 57.2252 514.25 57.2251C514.191 57.2251 514.123 57.2294 514.056 57.2339ZM471.778 56.895C471.778 56.895 471.648 57.4643 471.151 57.4644C470.655 57.4644 470.523 56.895 470.523 56.895L470.768 56.814C470.768 56.814 470.862 57.1792 471.151 57.1792C471.44 57.1791 471.535 56.814 471.535 56.814L471.778 56.895Z" fill="white"/>
<path d="M465.156 34.1558C466.612 34.1558 467.834 34.4593 468.822 35.0659C469.828 35.6726 470.573 36.4704 471.059 37.4585C471.544 38.4465 471.787 39.5127 471.787 40.6567C471.787 42.3554 471.214 43.8377 470.07 45.103C468.926 46.3682 467.176 47.0005 464.818 47.0005C463.276 47.0005 461.984 46.5845 460.944 45.7524H460.788V50.4077L460.813 50.979C460.848 51.3604 460.936 51.6125 461.074 51.7339C461.213 51.855 461.542 51.9417 462.062 51.9937C462.287 51.9937 462.461 52.0107 462.582 52.0454C462.703 52.0801 462.764 52.1584 462.764 52.2798C462.764 52.4529 462.617 52.5395 462.322 52.5396H456.731C456.454 52.5396 456.316 52.4529 456.315 52.2798C456.315 52.1933 456.35 52.1237 456.419 52.0718C456.488 52.0371 456.593 52.011 456.731 51.9937C456.87 51.9937 456.992 51.9846 457.096 51.9673C457.876 51.9326 458.266 51.603 458.266 50.979V38.0562C458.266 37.4321 458.213 36.981 458.109 36.7036C458.023 36.4265 457.797 36.2444 457.434 36.1577C457.312 36.1231 457.13 36.0969 456.888 36.0796C456.645 36.0449 456.437 36.0107 456.264 35.9761C456.108 35.9241 456.029 35.8374 456.029 35.7163C456.029 35.5603 456.134 35.4729 456.342 35.4556C456.55 35.4209 456.888 35.3777 457.355 35.3257C458.066 35.2043 458.864 34.9099 459.748 34.4419C460.094 34.2514 460.337 34.1559 460.476 34.1558C460.684 34.1558 460.788 34.3034 460.788 34.5981V35.5854C461.967 34.6322 463.423 34.1558 465.156 34.1558ZM424.053 27.603C426.098 27.6031 427.875 27.9759 429.383 28.7212L429.747 28.1753C429.938 27.9153 430.146 27.7847 430.371 27.7847C430.596 27.7847 430.718 27.9063 430.735 28.1489L431.151 32.856V33.1938C431.203 33.4537 431.073 33.5835 430.761 33.5835C430.605 33.5834 430.466 33.5312 430.345 33.4272C430.224 33.3232 430.12 33.1673 430.033 32.9595C429.964 32.7343 429.894 32.5351 429.825 32.3618C429.617 31.5817 429.071 30.7408 428.187 29.8394C427.32 28.9381 425.899 28.4869 423.923 28.4868C422.415 28.4868 421.304 28.9208 420.594 29.7876C419.883 30.6542 419.528 31.608 419.528 32.6479C419.528 33.4625 419.832 34.1299 420.438 34.6499C421.062 35.1525 421.782 35.5254 422.597 35.7681C423.429 36.0107 424.452 36.262 425.665 36.522C427.52 36.9553 429.105 37.5191 430.423 38.2124C431.758 38.8884 432.426 40.0149 432.426 41.5923C432.426 43.0831 431.827 44.4355 430.631 45.6489C429.452 46.8449 427.702 47.4428 425.379 47.4429C422.709 47.4429 420.482 47.0439 418.696 46.2466L418.202 46.7671C417.977 46.9924 417.846 47.114 417.812 47.1313C417.673 47.2178 417.534 47.2351 417.396 47.1831C417.274 47.1311 417.214 47.0444 417.214 46.9233V46.8188L416.824 41.9565C416.807 41.6273 416.928 41.4625 417.188 41.4624C417.447 41.4624 417.656 41.6617 417.812 42.0601C418.453 43.6894 419.45 44.851 420.802 45.5444C422.154 46.2378 423.454 46.5844 424.702 46.5845C426.332 46.5845 427.511 46.1946 428.239 45.4146C428.984 44.6346 429.357 43.7763 429.357 42.8403C429.357 41.9043 428.967 41.2109 428.187 40.7603C427.424 40.2923 426.445 39.9023 425.249 39.5903C424.174 39.2956 423.116 39.0012 422.076 38.7065C421.053 38.4118 420.152 38.0733 419.372 37.6919C418.592 37.3106 417.942 36.7909 417.422 36.1323C416.919 35.4737 416.668 34.6847 416.668 33.7661C416.668 32.1019 417.37 30.6622 418.774 29.4487C420.196 28.2182 421.955 27.603 424.053 27.603ZM482.584 27.603C484.629 27.6031 486.406 27.9759 487.914 28.7212L488.278 28.1753C488.469 27.9153 488.677 27.7847 488.902 27.7847C489.128 27.7847 489.249 27.9063 489.267 28.1489L489.683 32.856V33.1938C489.734 33.4537 489.604 33.5835 489.292 33.5835C489.136 33.5834 488.997 33.5312 488.876 33.4272C488.755 33.3232 488.651 33.1673 488.564 32.9595C488.495 32.7343 488.426 32.5351 488.356 32.3618C488.148 31.5817 487.602 30.7408 486.718 29.8394C485.851 28.9381 484.43 28.4869 482.454 28.4868C480.946 28.4868 479.836 28.9208 479.125 29.7876C478.414 30.6542 478.06 31.608 478.06 32.6479C478.06 33.4625 478.363 34.1299 478.97 34.6499C479.594 35.1525 480.313 35.5254 481.128 35.7681C481.96 36.0107 482.983 36.262 484.196 36.522C486.051 36.9553 487.637 37.5191 488.954 38.2124C490.289 38.8884 490.956 40.0149 490.956 41.5923C490.956 43.0831 490.358 44.4355 489.162 45.6489C487.983 46.8449 486.233 47.4428 483.91 47.4429C481.241 47.4429 479.013 47.0439 477.228 46.2466L476.733 46.7671C476.508 46.9924 476.377 47.114 476.343 47.1313C476.204 47.2178 476.065 47.2351 475.927 47.1831C475.806 47.1311 475.745 47.0444 475.745 46.9233V46.8188L475.355 41.9565C475.338 41.6273 475.459 41.4625 475.719 41.4624C475.979 41.4624 476.187 41.6617 476.343 42.0601C476.984 43.6894 477.981 44.851 479.333 45.5444C480.685 46.2378 481.985 46.5844 483.233 46.5845C484.863 46.5845 486.042 46.1946 486.771 45.4146C487.516 44.6346 487.889 43.7763 487.889 42.8403C487.889 41.9043 487.498 41.2109 486.718 40.7603C485.955 40.2923 484.976 39.9023 483.78 39.5903C482.706 39.2956 481.648 39.0012 480.607 38.7065C479.585 38.4118 478.683 38.0733 477.903 37.6919C477.123 37.3106 476.473 36.7909 475.953 36.1323C475.45 35.4737 475.199 34.6847 475.199 33.7661C475.199 32.102 475.901 30.6622 477.305 29.4487C478.726 28.2179 480.486 27.603 482.584 27.603ZM440.101 31.7632C440.257 31.7632 440.335 31.8245 440.335 31.9458V34.52H443.976V35.2993H440.335V43.3608C440.352 43.4303 440.36 43.6035 440.36 43.8804C440.412 44.4871 440.534 44.9643 440.725 45.311C440.933 45.6577 441.427 45.8306 442.207 45.8306C442.727 45.8306 443.083 45.7793 443.273 45.6753C443.481 45.554 443.654 45.3801 443.793 45.1548C443.932 44.9294 444.062 44.7647 444.184 44.6606C444.322 44.5568 444.565 44.5044 444.911 44.5044C445.015 44.5044 445.128 44.5396 445.249 44.6089C445.37 44.6608 445.432 44.7213 445.432 44.7905C445.432 45.1719 445.007 45.6753 444.157 46.2993C443.325 46.9233 442.363 47.2349 441.271 47.2349C439.919 47.2348 438.991 46.9053 438.488 46.2466C438.003 45.5705 437.761 44.5213 437.761 43.1001V35.2993H436.305C436.149 35.2993 436.07 35.2561 436.07 35.1694C436.07 35.0656 436.14 34.9699 436.278 34.8833C436.746 34.5886 437.318 34.1726 437.994 33.6353C438.67 33.0806 439.182 32.5781 439.528 32.1274C439.771 31.8848 439.962 31.7633 440.101 31.7632ZM498.632 31.7632C498.788 31.7632 498.866 31.8245 498.866 31.9458V34.52H502.507V35.2993H498.866V43.3608C498.883 43.4303 498.892 43.6035 498.892 43.8804C498.944 44.4871 499.065 44.9643 499.256 45.311C499.464 45.6577 499.958 45.8306 500.738 45.8306C501.258 45.8306 501.614 45.7793 501.805 45.6753C502.013 45.554 502.186 45.3801 502.324 45.1548C502.463 44.9294 502.593 44.7647 502.715 44.6606C502.854 44.5568 503.096 44.5044 503.442 44.5044C503.546 44.5044 503.659 44.5396 503.78 44.6089C503.901 44.6608 503.963 44.7213 503.963 44.7905C503.963 45.1719 503.538 45.6753 502.688 46.2993C501.856 46.9233 500.894 47.2349 499.802 47.2349C498.45 47.2348 497.522 46.9053 497.02 46.2466C496.534 45.5705 496.292 44.5213 496.292 43.1001V35.2993H494.836C494.68 35.2993 494.602 35.2561 494.602 35.1694C494.602 35.0656 494.671 34.9699 494.81 34.8833C495.278 34.5886 495.849 34.1726 496.525 33.6353C497.201 33.0806 497.713 32.5781 498.06 32.1274C498.302 31.8848 498.493 31.7633 498.632 31.7632ZM512.826 34.1558C514.213 34.1558 515.478 34.4161 516.622 34.936C517.784 35.4388 518.686 36.1843 519.327 37.1724C519.986 38.143 520.314 39.3219 520.314 40.7085C520.314 42.8059 519.604 44.4177 518.183 45.5444C516.778 46.6712 514.993 47.2349 512.826 47.2349C510.642 47.2349 508.847 46.6712 507.443 45.5444C506.039 44.4004 505.337 42.7885 505.337 40.7085C505.337 39.3391 505.667 38.1514 506.325 37.146C506.984 36.1406 507.877 35.395 509.004 34.9097C510.148 34.407 511.422 34.1558 512.826 34.1558ZM548.575 34.1558C549.563 34.1558 550.517 34.3548 551.436 34.7534C552.354 35.1521 553.1 35.6816 553.672 36.3403C554.244 36.999 554.53 37.7095 554.53 38.4722C554.53 38.8882 554.304 39.0962 553.854 39.0962H544.337C544.129 40.8469 544.406 42.4155 545.169 43.8022C545.932 45.1717 547.284 45.8569 549.226 45.8569C550.37 45.8569 551.115 45.7092 551.462 45.4146C551.826 45.1025 552.199 44.6522 552.58 44.063C552.979 43.4737 553.429 43.1784 553.932 43.1782C554.295 43.1782 554.478 43.2478 554.479 43.3862C554.479 43.6636 554.244 44.1237 553.776 44.7651C553.308 45.3892 552.606 45.9609 551.67 46.481C550.751 46.9837 549.659 47.2348 548.394 47.2349C546.175 47.2349 544.432 46.6631 543.167 45.519C541.902 44.3749 541.269 42.8488 541.269 40.9419C541.269 39.3646 541.668 38.0732 542.465 37.0679C543.28 36.0452 544.25 35.3086 545.377 34.8579C546.504 34.3899 547.57 34.1558 548.575 34.1558ZM451.383 34.1558C451.608 34.1558 451.721 34.3035 451.721 34.5981V44.7124L451.747 45.2847C451.764 45.7178 451.885 45.9953 452.11 46.1167C452.353 46.2207 452.692 46.29 453.125 46.3247C453.35 46.3247 453.506 46.3419 453.593 46.3765C453.679 46.3938 453.723 46.4722 453.723 46.6108C453.723 46.8015 453.567 46.897 453.255 46.897H447.586C447.291 46.8969 447.145 46.8015 447.145 46.6108C447.145 46.4549 447.344 46.3594 447.742 46.3247C448.228 46.2727 448.583 46.2034 448.809 46.1167C449.034 46.0126 449.146 45.7352 449.146 45.2847V38.1343C449.129 37.1986 448.999 36.6177 448.757 36.3921C448.532 36.1668 448.106 36.0542 447.482 36.0542C447.084 36.0022 446.884 35.9066 446.884 35.7681C446.884 35.56 447.067 35.4556 447.431 35.4556C448.332 35.4381 449.346 35.1266 450.473 34.52C450.941 34.2773 451.244 34.1558 451.383 34.1558ZM532.54 34.1558C533.805 34.1558 534.889 34.589 535.79 35.4556C536.241 35.9756 536.527 36.4961 536.648 37.0161C536.77 37.5188 536.831 38.2294 536.831 39.1479V45.2847C536.831 45.6834 536.944 45.9526 537.169 46.0913C537.412 46.2125 537.741 46.2901 538.157 46.3247C538.625 46.3594 538.858 46.4549 538.858 46.6108C538.858 46.8015 538.703 46.897 538.391 46.897H532.723C532.411 46.897 532.254 46.8015 532.254 46.6108C532.254 46.4895 532.306 46.4111 532.41 46.3765C532.531 46.3418 532.705 46.3247 532.931 46.3247C533.329 46.29 533.65 46.2036 533.893 46.0649C534.135 45.9262 534.257 45.6659 534.257 45.2847V38.8882C534.257 36.444 533.32 35.2222 531.448 35.2222C530.703 35.2222 529.931 35.4643 529.134 35.9497C528.354 36.4178 527.782 37.0075 527.418 37.7183V44.7124C527.418 45.2151 527.461 45.5798 527.548 45.8052C527.652 46.0303 527.782 46.1692 527.938 46.2212C528.094 46.2559 528.389 46.29 528.822 46.3247C529.047 46.3247 529.203 46.3418 529.29 46.3765C529.377 46.3938 529.42 46.4723 529.42 46.6108C529.42 46.8015 529.264 46.8969 528.952 46.897H523.283C522.989 46.897 522.841 46.8015 522.841 46.6108C522.841 46.4549 523.041 46.3594 523.439 46.3247C523.925 46.2727 524.281 46.2034 524.506 46.1167C524.731 46.0125 524.844 45.7351 524.844 45.2847V38.1343C524.826 37.1982 524.696 36.6174 524.453 36.3921C524.228 36.1668 523.803 36.0543 523.18 36.0542C522.781 36.0022 522.581 35.9066 522.581 35.7681C522.581 35.5947 523.093 35.3867 524.115 35.144C525.155 34.9014 525.841 34.6934 526.17 34.52C526.638 34.2774 526.941 34.1558 527.08 34.1558C527.305 34.156 527.418 34.3036 527.418 34.5981V36.2876C528.007 35.6463 528.796 35.1347 529.784 34.7534C530.789 34.3548 531.708 34.1558 532.54 34.1558ZM512.826 34.8833C509.845 34.8833 508.354 36.8254 508.354 40.7085C508.354 42.9098 508.796 44.4352 509.68 45.2847C510.581 46.1341 511.63 46.5591 512.826 46.5591C513.762 46.5591 514.568 46.3249 515.244 45.8569C515.937 45.3889 516.458 44.7216 516.805 43.855C517.169 42.9709 517.351 41.9219 517.351 40.7085C517.351 39.3564 517.134 38.2471 516.7 37.3804C516.284 36.4963 515.738 35.8633 515.062 35.4819C514.404 35.0832 513.658 34.8833 512.826 34.8833ZM464.324 34.936C463.007 34.936 461.828 35.4474 460.788 36.4702V41.5669C460.788 43.3175 461.161 44.5486 461.906 45.2593C462.652 45.9524 463.51 46.2993 464.48 46.2993C467.393 46.2992 468.849 44.5218 468.849 40.9683C468.849 36.9466 467.34 34.936 464.324 34.936ZM548.289 34.8833C547.37 34.8834 546.538 35.1355 545.793 35.6382C545.065 36.1409 544.58 37.0595 544.337 38.394H550.63C551.219 38.394 551.514 38.1599 551.514 37.6919C551.514 37.3452 551.392 36.9553 551.149 36.522C550.924 36.0886 550.56 35.7068 550.058 35.3774C549.572 35.0481 548.982 34.8833 548.289 34.8833ZM450.005 28.0708C450.507 28.0709 450.915 28.2096 451.227 28.4868C451.556 28.7642 451.721 29.1028 451.721 29.5015C451.721 29.8827 451.556 30.2124 451.227 30.4897C450.915 30.7669 450.507 30.9057 450.005 30.9058C449.52 30.9058 449.112 30.7581 448.782 30.4634C448.453 30.1514 448.288 29.8307 448.288 29.5015C448.288 29.1549 448.453 28.8342 448.782 28.5396C449.112 28.2275 449.52 28.0708 450.005 28.0708Z" fill="white"/>
</svg>
