<svg width="300" height="89" viewBox="0 0 555 89" fill="none" xmlns="http://www.w3.org/2000/svg">

<path d="M367.896 59.958C367.706 60.4275 367.399 60.6758 367.078 60.6758C367.002 60.6757 366.925 60.6575 366.844 60.626L366.78 60.2422C366.857 60.2693 366.934 60.2881 367.011 60.2881C367.245 60.2881 367.466 60.1387 367.593 59.8096L367.688 59.5605L367.069 57.7324L366.871 57.3584L367.313 57.2998L367.842 58.8027L367.9 59.1318L367.995 58.8027L368.563 57.3584L368.961 57.2998L367.896 59.958ZM284.345 57.2998C284.778 57.2998 285.157 57.6967 285.157 58.4189C285.157 59.0689 284.706 59.6377 284.056 59.6377C283.956 59.6377 283.83 59.6239 283.704 59.6104V60.3242L283.749 60.6621H283.325V57.7734L283.267 57.3584L283.704 57.3086V57.5742C283.713 57.5636 283.929 57.2999 284.345 57.2998ZM315.222 57.2998C315.655 57.3 316.034 57.6969 316.034 58.4189C316.034 59.0689 315.583 59.6376 314.933 59.6377C314.833 59.6377 314.706 59.6239 314.58 59.6104V60.3242L314.626 60.6621H314.201V57.7734L314.143 57.3584L314.58 57.3086V57.5742C314.586 57.5668 314.803 57.2998 315.222 57.2998ZM262.734 59.0684C262.874 59.0684 263.006 59.1726 263.006 59.3936C263.006 59.6193 262.866 59.9991 262.536 60.2158L262.373 60.0576C262.477 59.9584 262.626 59.7554 262.626 59.6064C262.626 59.4891 262.586 59.4432 262.464 59.3936V59.3535C262.464 59.1956 262.572 59.0685 262.734 59.0684ZM243.105 57.2949C243.458 57.2949 243.783 57.4487 243.783 57.873V59.0684C243.783 59.3392 243.986 59.5791 243.986 59.5791L243.566 59.6377C243.566 59.6377 243.44 59.4661 243.436 59.2676C243.314 59.4526 242.998 59.6376 242.718 59.6377C242.411 59.6377 242.135 59.412 242.135 59.0781C242.135 58.5771 242.659 58.2432 243.403 58.2432V58.0801C243.403 57.7194 243.25 57.5978 243.065 57.5977C242.654 57.5977 242.428 57.9294 242.424 57.9355L242.221 57.6426C242.221 57.6426 242.51 57.295 243.105 57.2949ZM251.687 57.29C252.39 57.2902 252.445 58.0717 252.454 58.3516L252.35 58.4688H251.091C251.1 58.8748 251.289 59.2898 251.727 59.29C252.105 59.29 252.426 58.992 252.436 58.9834L252.499 59.3262C252.499 59.3262 252.178 59.6377 251.618 59.6377C251.027 59.6374 250.688 59.0684 250.688 58.5088C250.689 57.8724 250.996 57.29 251.687 57.29ZM272.795 57.29C273.337 57.29 273.743 57.6516 273.743 58.4189C273.743 59.0689 273.337 59.6376 272.642 59.6377C271.713 59.6377 271.69 58.5797 271.689 58.5049C271.689 57.8052 272.109 57.2901 272.795 57.29ZM280.193 57.29C280.735 57.29 281.142 57.6516 281.142 58.4189C281.142 59.0689 280.735 59.6376 280.04 59.6377C279.111 59.6377 279.088 58.5797 279.088 58.5049C279.088 57.8052 279.507 57.29 280.193 57.29ZM303.23 57.29C303.772 57.29 304.179 57.6516 304.179 58.4189C304.179 59.0689 303.772 59.6376 303.077 59.6377C302.149 59.6377 302.125 58.5797 302.125 58.5049C302.125 57.8052 302.544 57.29 303.23 57.29ZM311.069 57.29C311.611 57.29 312.018 57.6516 312.018 58.4189C312.018 59.0689 311.611 59.6377 310.916 59.6377C309.988 59.6376 309.964 58.5796 309.964 58.5049C309.964 57.8053 310.383 57.2902 311.069 57.29ZM329.513 57.29C330.054 57.29 330.461 57.6516 330.461 58.4189C330.461 59.0689 330.054 59.6376 329.359 59.6377C328.431 59.6377 328.407 58.5797 328.407 58.5049C328.407 57.8052 328.827 57.2901 329.513 57.29ZM340.215 57.2949C340.567 57.2949 340.892 57.4487 340.892 57.873V59.0684C340.892 59.337 341.092 59.5753 341.095 59.5791L340.675 59.6377C340.671 59.6322 340.548 59.4629 340.544 59.2676C340.422 59.4526 340.106 59.6377 339.826 59.6377C339.519 59.6375 339.244 59.4119 339.244 59.0781C339.244 58.5771 339.768 58.2432 340.513 58.2432V58.0801C340.513 57.7191 340.359 57.5977 340.174 57.5977C339.765 57.5978 339.539 57.9263 339.533 57.9355L339.33 57.6426C339.33 57.6426 339.619 57.2949 340.215 57.2949ZM349.166 57.29C349.87 57.2903 349.924 58.0717 349.933 58.3516L349.829 58.4688H348.57C348.579 58.8748 348.769 59.2899 349.206 59.29C349.585 59.29 349.907 58.9913 349.915 58.9834L349.979 59.3262C349.979 59.3262 349.657 59.6377 349.098 59.6377C348.507 59.6375 348.168 59.0684 348.168 58.5088C348.168 57.8724 348.475 57.29 349.166 57.29ZM371.696 57.29C372.021 57.29 372.266 57.4033 372.433 57.6064L372.193 57.9092C372.049 57.7015 371.868 57.6064 371.688 57.6064C371.277 57.6066 371.051 58.0124 371.051 58.4365C371.051 58.8518 371.245 59.29 371.692 59.29C372.069 59.29 372.359 58.9935 372.369 58.9834L372.433 59.3262C372.433 59.3262 372.144 59.6377 371.584 59.6377C370.993 59.6377 370.654 59.0685 370.654 58.5088C370.654 57.8726 371.006 57.2903 371.696 57.29ZM375.364 57.29C376.068 57.2901 376.123 58.0717 376.132 58.3516L376.027 58.4688H374.769C374.778 58.8749 374.968 59.29 375.405 59.29C375.782 59.2898 376.102 58.994 376.113 58.9834L376.177 59.3262C376.174 59.329 375.854 59.6376 375.297 59.6377C374.706 59.6377 374.366 59.0685 374.366 58.5088C374.366 57.8724 374.674 57.29 375.364 57.29ZM240.046 56.5547C240.122 56.5547 240.191 56.5685 240.227 56.582L240.267 56.9561C240.231 56.9471 240.172 56.9424 240.118 56.9424C240.01 56.9424 239.887 57.0284 239.752 57.2676L239.318 58.0439L240.312 59.5791H239.797L238.962 58.2383H238.642V59.2402L238.687 59.5791H238.235V57.0244L238.177 56.6084H238.642V57.877H238.962L239.387 57.083C239.608 56.6677 239.838 56.5547 240.046 56.5547ZM247.361 58.7031L248.26 57.3584H248.508V59.249L248.554 59.5791H248.129V58.1387L248.021 58.3418L247.344 59.3574L246.612 58.3604L246.504 58.1709V59.2402L246.549 59.5791H246.147V57.6875L246.103 57.3584H246.373L247.361 58.7031ZM256.44 59.249L256.485 59.5791H256.062V58.5996H255.023V59.2402L255.068 59.5791H254.644V57.7734L254.585 57.3584L255.023 57.3086V58.292H256.062V57.7734L256.003 57.3584L256.44 57.3086V59.249ZM259.198 58.1709H259.515C260.209 58.171 260.431 58.4778 260.431 58.875C260.431 59.272 260.209 59.579 259.515 59.5791H258.819V57.7734L258.761 57.3584L259.198 57.3086V58.1709ZM268.413 58.3105H268.657L268.978 57.7686C269.181 57.4257 269.388 57.3223 269.623 57.3223C269.682 57.3223 269.75 57.3351 269.786 57.3486L269.826 57.6826C269.794 57.6692 269.736 57.665 269.695 57.665C269.564 57.6651 269.433 57.7281 269.312 57.9355L269.005 58.4463L269.881 59.5791H269.389L268.652 58.6172H268.413V59.2402L268.459 59.5791H268.034V57.7734L267.976 57.3584L268.413 57.3086V58.3105ZM277.331 57.6738H276.604V59.2402L276.649 59.5791H276.226V57.6738H275.499V57.3584H277.331V57.6738ZM287.733 58.1709H288.05C288.745 58.1709 288.966 58.4778 288.966 58.875C288.966 59.2721 288.745 59.5791 288.05 59.5791H287.354V57.7734L287.296 57.3584L287.733 57.3086V58.1709ZM289.711 59.2402L289.756 59.5791H289.332V57.7734L289.273 57.3584L289.711 57.3086V59.2402ZM292.455 58.9922L292.568 58.7705L293.517 57.3584H293.873V59.249L293.918 59.5791H293.493V57.9453L293.381 58.166L292.433 59.5791H292.076V57.7734L292.018 57.3584L292.455 57.3086V58.9922ZM300.276 57.6738H299.369V59.2402L299.414 59.5791H298.989V57.6963L298.944 57.3584H300.276V57.6738ZM307.089 57.3311C307.594 57.313 307.893 57.5161 307.893 57.8682C307.893 58.0892 307.748 58.2198 307.612 58.3281C307.843 58.4184 308.027 58.5953 308.027 58.8887C308.027 59.2722 307.806 59.5791 307.111 59.5791H306.349V57.6875L306.304 57.3584L307.089 57.3311ZM318.61 58.9922L318.723 58.7705L319.671 57.3584H320.027V59.249L320.072 59.5791H319.648V57.9453L319.535 58.166L318.588 59.5791H318.231V57.7734L318.172 57.3584L318.61 57.3086V58.9922ZM323.855 57.6738H323.129V59.2402L323.174 59.5791H322.749V57.6738H322.022V57.3584H323.855V57.6738ZM336.127 56.5859C336.691 56.5679 337.093 56.8208 337.093 57.29C337.093 57.5383 336.871 57.7918 336.754 57.9092C337.047 58.0446 337.265 58.2294 337.265 58.6582C337.265 59.1411 336.976 59.579 336.154 59.5791H335.473V57.0244L335.414 56.6084L336.127 56.5859ZM346.033 59.5791H343.271V57.7734L343.212 57.3584L343.649 57.3086V59.2715H344.462V57.7734L344.403 57.3584L344.841 57.3086V59.2715H345.653V57.7734L345.595 57.3584L346.033 57.3086V59.5791ZM353.324 58.7031L354.223 57.3584H354.471V59.249L354.516 59.5791H354.092V58.1387L353.983 58.3418L353.306 59.3574L352.574 58.3604L352.466 58.1709V59.2402L352.512 59.5791H352.109V57.6875L352.064 57.3584H352.335L353.324 58.7031ZM360.328 57.3311C360.833 57.3131 361.131 57.5162 361.131 57.8682C361.131 58.0891 360.987 58.2198 360.852 58.3281C361.082 58.4184 361.267 58.5953 361.267 58.8887C361.266 59.2721 361.045 59.579 360.351 59.5791H359.588V57.6875L359.542 57.3584L360.328 57.3311ZM363.789 58.3105H364.033L364.354 57.7686C364.557 57.4257 364.764 57.3223 364.999 57.3223C365.058 57.3223 365.126 57.3351 365.162 57.3486L365.202 57.6826C365.17 57.6692 365.112 57.665 365.071 57.665C364.94 57.6651 364.809 57.7281 364.688 57.9355L364.381 58.4463L365.257 59.5791H364.765L364.028 58.6172H363.789V59.2402L363.835 59.5791H363.41V57.7734L363.352 57.3584L363.789 57.3086V58.3105ZM284.214 57.6201C283.915 57.6203 283.709 57.9058 283.704 57.9131V59.3125C283.695 59.3125 283.952 59.3437 284.128 59.3438C284.462 59.3438 284.737 58.933 284.737 58.459C284.737 57.9492 284.512 57.6201 284.214 57.6201ZM315.091 57.6201C314.788 57.6201 314.58 57.9131 314.58 57.9131V59.3125C314.578 59.3134 314.831 59.3438 315.005 59.3438C315.339 59.3436 315.614 58.9329 315.614 58.459C315.614 57.9494 315.388 57.6204 315.091 57.6201ZM272.714 57.5928C272.335 57.5928 272.105 57.9899 272.104 58.4639C272.104 58.9378 272.335 59.335 272.714 59.335C273.093 59.3348 273.327 58.9378 273.327 58.4639C273.327 57.99 273.093 57.5929 272.714 57.5928ZM280.112 57.5928C279.733 57.5928 279.503 57.9899 279.503 58.4639C279.503 58.9378 279.733 59.335 280.112 59.335C280.491 59.3348 280.726 58.9377 280.726 58.4639C280.726 57.99 280.491 57.5929 280.112 57.5928ZM303.149 57.5928C302.77 57.5928 302.54 57.9899 302.54 58.4639C302.54 58.9378 302.77 59.335 303.149 59.335C303.528 59.3348 303.763 58.9378 303.763 58.4639C303.763 57.99 303.528 57.5929 303.149 57.5928ZM310.988 57.5928C310.609 57.5929 310.379 57.99 310.379 58.4639C310.379 58.9378 310.609 59.3349 310.988 59.335C311.367 59.335 311.603 58.9378 311.603 58.4639C311.603 57.9899 311.367 57.5928 310.988 57.5928ZM329.432 57.5928C329.052 57.5928 328.822 57.9899 328.822 58.4639C328.822 58.9378 329.052 59.335 329.432 59.335C329.811 59.3349 330.045 58.9378 330.045 58.4639C330.045 57.99 329.811 57.5929 329.432 57.5928ZM243.403 58.5312C243.285 58.5358 242.541 58.55 242.541 59.0098C242.541 59.1542 242.646 59.3125 242.885 59.3125C243.083 59.3123 243.313 59.137 243.403 59.0332V58.5312ZM340.513 58.5312C340.395 58.5358 339.651 58.5497 339.65 59.0098C339.65 59.1541 339.754 59.3123 339.993 59.3125C340.192 59.3125 340.422 59.1371 340.513 59.0332V58.5312ZM259.198 59.2812H259.555C259.938 59.2812 260.047 59.1051 260.047 58.875C260.047 58.6448 259.938 58.4688 259.555 58.4688H259.198V59.2812ZM287.733 59.2812H288.091C288.474 59.2811 288.582 59.105 288.582 58.875C288.582 58.6449 288.474 58.4689 288.091 58.4688H287.733V59.2812ZM306.728 59.2812H307.152C307.536 59.2811 307.644 59.1046 307.644 58.915C307.643 58.6535 307.463 58.5361 307.098 58.5361H306.728V59.2812ZM359.967 59.2812H360.391C360.774 59.2812 360.883 59.1046 360.883 58.915C360.883 58.6535 360.702 58.5362 360.337 58.5361H359.967V59.2812ZM335.879 59.2539H336.208C336.691 59.2539 336.836 58.9736 336.836 58.6982C336.836 58.2878 336.596 58.1387 336.136 58.1387H335.879V59.2539ZM306.728 57.6289V58.252H307.147C307.251 58.252 307.359 58.2611 307.382 58.2656C307.459 58.1889 307.545 58.0623 307.545 57.918C307.545 57.7058 307.4 57.6111 307.048 57.6201L306.728 57.6289ZM359.967 57.6289V58.252H360.387C360.49 58.252 360.599 58.2611 360.621 58.2656C360.698 58.1889 360.783 58.0623 360.783 57.918C360.783 57.7058 360.639 57.6111 360.287 57.6201L359.967 57.6289ZM251.632 57.584C251.325 57.5842 251.176 57.8548 251.113 58.1797H252.043C252.029 57.945 251.943 57.584 251.632 57.584ZM349.111 57.584C348.805 57.5841 348.656 57.8548 348.593 58.1797H349.522C349.509 57.945 349.423 57.584 349.111 57.584ZM375.311 57.584C375.004 57.584 374.854 57.8547 374.791 58.1797H375.721C375.707 57.9451 375.622 57.5844 375.311 57.584ZM335.879 56.9248V57.8047H336.204C336.375 57.8047 336.524 57.8369 336.533 57.8369C336.61 57.7331 336.705 57.5793 336.705 57.3809C336.705 57.065 336.511 56.9161 336.073 56.916C336.015 56.916 335.947 56.9203 335.879 56.9248ZM293.602 56.5859C293.602 56.5859 293.471 57.1552 292.975 57.1553C292.478 57.1553 292.347 56.5859 292.347 56.5859L292.591 56.5049C292.591 56.5049 292.686 56.8701 292.975 56.8701C293.263 56.8701 293.358 56.5049 293.358 56.5049L293.602 56.5859Z" fill="white"/>
<path d="M286.979 33.8467C288.436 33.8467 289.657 34.1502 290.646 34.7568C291.651 35.3636 292.396 36.1613 292.882 37.1494C293.367 38.1374 293.61 39.2037 293.61 40.3477C293.61 42.0463 293.038 43.5286 291.894 44.7939C290.749 46.0591 288.999 46.6914 286.642 46.6914C285.099 46.6914 283.808 46.2754 282.768 45.4434H282.611V50.0986L282.637 50.6699C282.671 51.0513 282.759 51.3035 282.897 51.4248C283.036 51.5459 283.365 51.6326 283.885 51.6846C284.11 51.6846 284.284 51.7017 284.405 51.7363C284.527 51.771 284.587 51.8494 284.587 51.9707C284.587 52.1438 284.44 52.2304 284.146 52.2305H278.555C278.277 52.2305 278.139 52.1439 278.139 51.9707C278.139 51.8842 278.173 51.8147 278.242 51.7627C278.312 51.728 278.416 51.7019 278.555 51.6846C278.693 51.6846 278.815 51.6755 278.919 51.6582C279.699 51.6235 280.089 51.2939 280.089 50.6699V37.7471C280.089 37.123 280.037 36.6719 279.933 36.3945C279.846 36.1174 279.621 35.9353 279.257 35.8486C279.136 35.814 278.954 35.7878 278.711 35.7705C278.468 35.7359 278.26 35.7016 278.087 35.667C277.931 35.6151 277.853 35.5283 277.853 35.4072C277.853 35.2512 277.957 35.1638 278.165 35.1465C278.373 35.1118 278.711 35.0686 279.179 35.0166C279.889 34.8953 280.687 34.6009 281.571 34.1328C281.918 33.9423 282.16 33.8468 282.299 33.8467C282.507 33.8467 282.611 33.9944 282.611 34.2891V35.2764C283.79 34.3231 285.246 33.8467 286.979 33.8467ZM245.876 27.2939C247.921 27.294 249.698 27.6668 251.206 28.4121L251.57 27.8662C251.761 27.6062 251.969 27.4756 252.194 27.4756C252.42 27.4756 252.541 27.5972 252.559 27.8398L252.975 32.5469V32.8848C253.026 33.1446 252.896 33.2744 252.584 33.2744C252.428 33.2743 252.289 33.2221 252.168 33.1182C252.047 33.0142 251.943 32.8582 251.856 32.6504C251.787 32.4252 251.718 32.226 251.648 32.0527C251.44 31.2727 250.894 30.4317 250.01 29.5303C249.143 28.629 247.722 28.1778 245.746 28.1777C244.238 28.1777 243.128 28.6118 242.417 29.4785C241.706 30.3452 241.352 31.2989 241.352 32.3389C241.352 33.1534 241.655 33.8209 242.262 34.3408C242.886 34.8434 243.605 35.2163 244.42 35.459C245.252 35.7016 246.275 35.9529 247.488 36.2129C249.343 36.6462 250.929 37.21 252.246 37.9033C253.581 38.5794 254.249 39.7058 254.249 41.2832C254.249 42.774 253.65 44.1264 252.454 45.3398C251.275 46.5358 249.525 47.1337 247.202 47.1338C244.533 47.1338 242.305 46.7349 240.52 45.9375L240.025 46.458C239.8 46.6834 239.669 46.8049 239.635 46.8223C239.496 46.9087 239.357 46.926 239.219 46.874C239.098 46.8221 239.037 46.7353 239.037 46.6143V46.5098L238.647 41.6475C238.63 41.3182 238.751 41.1534 239.011 41.1533C239.271 41.1533 239.479 41.3526 239.635 41.751C240.276 43.3803 241.273 44.5419 242.625 45.2354C243.977 45.9287 245.277 46.2753 246.525 46.2754C248.155 46.2754 249.334 45.8855 250.062 45.1055C250.808 44.3255 251.181 43.4672 251.181 42.5312C251.181 41.5953 250.79 40.9018 250.01 40.4512C249.247 39.9833 248.268 39.5932 247.072 39.2812C245.997 38.9866 244.94 38.6922 243.899 38.3975C242.877 38.1028 241.975 37.7642 241.195 37.3828C240.415 37.0015 239.765 36.4818 239.245 35.8232C238.742 35.1646 238.491 34.3756 238.491 33.457C238.491 31.7929 239.194 30.3531 240.598 29.1396C242.019 27.9092 243.779 27.2939 245.876 27.2939ZM304.407 27.2939C306.453 27.294 308.229 27.6668 309.737 28.4121L310.102 27.8662C310.292 27.6062 310.5 27.4756 310.726 27.4756C310.951 27.4756 311.072 27.5972 311.09 27.8398L311.506 32.5469V32.8848C311.558 33.1446 311.427 33.2744 311.115 33.2744C310.959 33.2743 310.82 33.2221 310.699 33.1182C310.578 33.0142 310.474 32.8582 310.388 32.6504C310.318 32.4252 310.249 32.226 310.18 32.0527C309.972 31.2727 309.425 30.4317 308.541 29.5303C307.674 28.629 306.253 28.1778 304.277 28.1777C302.769 28.1777 301.659 28.6118 300.948 29.4785C300.238 30.3452 299.883 31.2989 299.883 32.3389C299.883 33.1534 300.186 33.8209 300.793 34.3408C301.417 34.8434 302.137 35.2163 302.951 35.459C303.783 35.7016 304.806 35.9529 306.02 36.2129C307.874 36.6462 309.46 37.21 310.777 37.9033C312.112 38.5794 312.779 39.7058 312.779 41.2832C312.779 42.774 312.181 44.1264 310.985 45.3398C309.807 46.5358 308.056 47.1337 305.733 47.1338C303.064 47.1338 300.836 46.7349 299.051 45.9375L298.557 46.458C298.331 46.6834 298.201 46.8049 298.166 46.8223C298.027 46.9087 297.889 46.926 297.75 46.874C297.629 46.8221 297.568 46.7353 297.568 46.6143V46.5098L297.179 41.6475C297.161 41.3182 297.282 41.1534 297.542 41.1533C297.802 41.1533 298.01 41.3526 298.166 41.751C298.807 43.3803 299.804 44.5419 301.156 45.2354C302.508 45.9287 303.809 46.2753 305.057 46.2754C306.686 46.2754 307.866 45.8855 308.594 45.1055C309.339 44.3255 309.712 43.4672 309.712 42.5312C309.712 41.5953 309.321 40.9018 308.541 40.4512C307.778 39.9833 306.799 39.5932 305.604 39.2812C304.529 38.9866 303.471 38.6922 302.431 38.3975C301.408 38.1028 300.507 37.7642 299.727 37.3828C298.947 37.0015 298.296 36.4818 297.776 35.8232C297.274 35.1646 297.023 34.3756 297.022 33.457C297.022 31.7929 297.724 30.3531 299.128 29.1396C300.549 27.9089 302.31 27.2939 304.407 27.2939ZM261.924 31.4541C262.08 31.4541 262.158 31.5154 262.158 31.6367V34.2109H265.799V34.9902H262.158V43.0518C262.175 43.1213 262.184 43.2945 262.184 43.5713C262.236 44.178 262.357 44.6553 262.548 45.002C262.756 45.3486 263.25 45.5215 264.03 45.5215C264.55 45.5215 264.906 45.4702 265.097 45.3662C265.305 45.2449 265.478 45.071 265.616 44.8457C265.755 44.6203 265.885 44.4556 266.007 44.3516C266.146 44.2477 266.388 44.1953 266.734 44.1953C266.838 44.1953 266.951 44.2305 267.072 44.2998C267.193 44.3518 267.255 44.4122 267.255 44.4814C267.255 44.8628 266.83 45.3662 265.98 45.9902C265.148 46.6142 264.186 46.9258 263.094 46.9258C261.742 46.9257 260.814 46.5962 260.312 45.9375C259.826 45.2614 259.584 44.2123 259.584 42.791V34.9902H258.128C257.972 34.9902 257.894 34.947 257.894 34.8604C257.894 34.7565 257.963 34.6608 258.102 34.5742C258.57 34.2795 259.141 33.8635 259.817 33.3262C260.493 32.7715 261.005 32.269 261.352 31.8184C261.594 31.5758 261.785 31.4542 261.924 31.4541ZM320.455 31.4541C320.611 31.4541 320.689 31.5154 320.689 31.6367V34.2109H324.33V34.9902H320.689V43.0518C320.707 43.1213 320.715 43.2945 320.715 43.5713C320.767 44.178 320.888 44.6553 321.079 45.002C321.287 45.3486 321.782 45.5215 322.562 45.5215C323.082 45.5215 323.437 45.4702 323.628 45.3662C323.836 45.2449 324.009 45.071 324.147 44.8457C324.286 44.6203 324.417 44.4556 324.538 44.3516C324.677 44.2477 324.919 44.1953 325.266 44.1953C325.37 44.1953 325.482 44.2305 325.604 44.2998C325.725 44.3518 325.786 44.4122 325.786 44.4814C325.786 44.8628 325.361 45.3662 324.512 45.9902C323.68 46.6142 322.717 46.9258 321.625 46.9258C320.273 46.9257 319.345 46.5962 318.843 45.9375C318.358 45.2614 318.115 44.2123 318.115 42.791V34.9902H316.659C316.503 34.9902 316.425 34.947 316.425 34.8604C316.425 34.7565 316.494 34.6608 316.633 34.5742C317.101 34.2795 317.673 33.8635 318.349 33.3262C319.025 32.7715 319.536 32.269 319.883 31.8184C320.125 31.5757 320.316 31.4542 320.455 31.4541ZM334.649 33.8467C336.036 33.8467 337.301 34.107 338.445 34.627C339.607 35.1297 340.509 35.8752 341.15 36.8633C341.809 37.834 342.138 39.0128 342.138 40.3994C342.138 42.4968 341.427 44.1086 340.006 45.2354C338.602 46.3621 336.816 46.9258 334.649 46.9258C332.465 46.9258 330.671 46.3621 329.267 45.2354C327.863 44.0913 327.16 42.4794 327.16 40.3994C327.16 39.03 327.49 37.8423 328.148 36.8369C328.807 35.8315 329.7 35.086 330.827 34.6006C331.971 34.0979 333.245 33.8467 334.649 33.8467ZM370.398 33.8467C371.386 33.8467 372.34 34.0457 373.259 34.4443C374.178 34.843 374.923 35.3725 375.495 36.0312C376.067 36.6899 376.354 37.4004 376.354 38.1631C376.353 38.5791 376.127 38.7871 375.677 38.7871H366.16C365.952 40.5378 366.23 42.1065 366.992 43.4932C367.755 44.8626 369.107 45.5479 371.049 45.5479C372.193 45.5478 372.938 45.4002 373.285 45.1055C373.649 44.7935 374.022 44.3431 374.403 43.7539C374.802 43.1647 375.252 42.8693 375.755 42.8691C376.119 42.8691 376.301 42.9387 376.302 43.0771C376.302 43.3545 376.068 43.8147 375.6 44.4561C375.132 45.0801 374.429 45.6519 373.493 46.1719C372.574 46.6746 371.482 46.9258 370.217 46.9258C367.998 46.9258 366.256 46.354 364.99 45.21C363.725 44.0658 363.092 42.5397 363.092 40.6328C363.092 39.0555 363.491 37.7641 364.288 36.7588C365.103 35.7361 366.074 34.9995 367.2 34.5488C368.327 34.0808 369.393 33.8467 370.398 33.8467ZM273.206 33.8467C273.431 33.8468 273.544 33.9945 273.544 34.2891V44.4033L273.57 44.9756C273.588 45.4087 273.708 45.6862 273.934 45.8076C274.176 45.9116 274.515 45.981 274.948 46.0156C275.173 46.0156 275.329 46.0328 275.416 46.0674C275.503 46.0847 275.546 46.1631 275.546 46.3018C275.546 46.4924 275.39 46.5879 275.078 46.5879H269.409C269.115 46.5878 268.968 46.4924 268.968 46.3018C268.968 46.1458 269.167 46.0503 269.565 46.0156C270.051 45.9636 270.406 45.8943 270.632 45.8076C270.857 45.7035 270.97 45.4261 270.97 44.9756V37.8252C270.952 36.8896 270.823 36.3086 270.58 36.083C270.355 35.8577 269.93 35.7451 269.306 35.7451C268.907 35.6931 268.707 35.5975 268.707 35.459C268.707 35.251 268.89 35.1465 269.254 35.1465C270.155 35.1291 271.169 34.8176 272.296 34.2109C272.764 33.9682 273.067 33.8467 273.206 33.8467ZM354.363 33.8467C355.629 33.8467 356.712 34.28 357.613 35.1465C358.064 35.6665 358.35 36.187 358.472 36.707C358.593 37.2097 358.654 37.9203 358.654 38.8389V44.9756C358.654 45.3743 358.767 45.6435 358.992 45.7822C359.235 45.9035 359.565 45.981 359.98 46.0156C360.448 46.0503 360.682 46.1458 360.682 46.3018C360.682 46.4924 360.526 46.5879 360.214 46.5879H354.546C354.234 46.5879 354.077 46.4924 354.077 46.3018C354.077 46.1805 354.129 46.102 354.233 46.0674C354.355 46.0327 354.529 46.0156 354.754 46.0156C355.152 45.9809 355.473 45.8945 355.716 45.7559C355.958 45.6172 356.08 45.3569 356.08 44.9756V38.5791C356.08 36.1349 355.144 34.9132 353.271 34.9131C352.526 34.9131 351.754 35.1553 350.957 35.6406C350.177 36.1087 349.605 36.6984 349.241 37.4092V44.4033C349.241 44.906 349.284 45.2707 349.371 45.4961C349.475 45.7212 349.605 45.8601 349.761 45.9121C349.917 45.9468 350.212 45.981 350.646 46.0156C350.871 46.0156 351.027 46.0327 351.113 46.0674C351.2 46.0848 351.243 46.1632 351.243 46.3018C351.243 46.4924 351.087 46.5878 350.775 46.5879H345.106C344.812 46.5879 344.664 46.4924 344.664 46.3018C344.664 46.1458 344.864 46.0503 345.263 46.0156C345.748 45.9636 346.104 45.8943 346.329 45.8076C346.554 45.7034 346.667 45.426 346.667 44.9756V37.8252C346.65 36.8891 346.519 36.3084 346.276 36.083C346.051 35.8577 345.627 35.7452 345.003 35.7451C344.604 35.6931 344.405 35.5975 344.404 35.459C344.404 35.2856 344.916 35.0776 345.938 34.835C346.979 34.5923 347.664 34.3843 347.993 34.2109C348.461 33.9683 348.765 33.8467 348.903 33.8467C349.128 33.8469 349.241 33.9946 349.241 34.2891V35.9785C349.831 35.3373 350.619 34.8256 351.607 34.4443C352.613 34.0457 353.531 33.8467 354.363 33.8467ZM334.649 34.5742C331.668 34.5742 330.177 36.5164 330.177 40.3994C330.177 42.6008 330.619 44.1262 331.503 44.9756C332.404 45.825 333.453 46.25 334.649 46.25C335.585 46.25 336.391 46.0158 337.067 45.5479C337.761 45.0798 338.281 44.4125 338.628 43.5459C338.992 42.6618 339.174 41.6128 339.174 40.3994C339.174 39.0474 338.957 37.938 338.523 37.0713C338.107 36.1873 337.562 35.5542 336.886 35.1729C336.227 34.7741 335.481 34.5742 334.649 34.5742ZM286.147 34.627C284.83 34.627 283.651 35.1384 282.611 36.1611V41.2578C282.611 43.0084 282.984 44.2395 283.729 44.9502C284.475 45.6433 285.333 45.9902 286.304 45.9902C289.216 45.9901 290.672 44.2128 290.672 40.6592C290.672 36.6375 289.164 34.627 286.147 34.627ZM370.112 34.5742C369.194 34.5743 368.362 34.8265 367.616 35.3291C366.888 35.8319 366.403 36.7504 366.16 38.085H372.453C373.042 38.0849 373.337 37.8508 373.337 37.3828C373.337 37.0361 373.215 36.6462 372.973 36.2129C372.747 35.7795 372.384 35.3977 371.881 35.0684C371.396 34.7391 370.806 34.5742 370.112 34.5742ZM271.828 27.7617C272.331 27.7618 272.738 27.9005 273.05 28.1777C273.379 28.4551 273.544 28.7937 273.544 29.1924C273.544 29.5736 273.379 29.9034 273.05 30.1807C272.738 30.4578 272.331 30.5966 271.828 30.5967C271.343 30.5967 270.935 30.449 270.605 30.1543C270.276 29.8424 270.111 29.5217 270.111 29.1924C270.111 28.8458 270.276 28.5251 270.605 28.2305C270.935 27.9184 271.343 27.7617 271.828 27.7617Z" fill="white"/>
<path d="M203.177 19.2939C216.984 19.2939 228.177 30.4868 228.177 44.2939C228.177 58.1011 216.984 69.2939 203.177 69.2939C189.37 69.2939 178.177 58.1011 178.177 44.2939C178.177 30.4868 189.37 19.2939 203.177 19.2939ZM202.46 32.2939C199.931 32.2939 197.809 33.0385 196.095 34.5273C194.402 35.9952 193.556 37.736 193.556 39.749C193.556 40.8603 193.859 41.8145 194.465 42.6113C195.092 43.4081 195.876 44.0367 196.816 44.498C197.757 44.9594 198.844 45.3691 200.077 45.7256C201.331 46.082 202.607 46.4385 203.902 46.7949C205.344 47.1724 206.526 47.6438 207.445 48.21C208.386 48.7552 208.855 49.5943 208.855 50.7266C208.855 51.8589 208.407 52.8972 207.508 53.8408C206.63 54.7843 205.209 55.2558 203.244 55.2559C201.739 55.2559 200.171 54.8367 198.541 53.998C196.911 53.1593 195.709 51.7541 194.936 49.7832C194.747 49.3009 194.496 49.0596 194.183 49.0596C193.869 49.0596 193.723 49.2588 193.744 49.6572L194.214 55.5391V55.665C194.214 55.8117 194.287 55.9166 194.434 55.9795C194.601 56.0423 194.768 56.0208 194.936 55.916C194.978 55.894 195.135 55.7478 195.405 55.4766L196.001 54.8467C198.154 55.8113 200.84 56.2939 204.059 56.2939C206.859 56.2939 208.971 55.5709 210.393 54.124C211.835 52.6562 212.556 51.0201 212.556 49.2168C212.556 47.3087 211.751 45.9458 210.142 45.1279C208.553 44.2891 206.64 43.6073 204.403 43.083C202.94 42.7685 201.707 42.4644 200.704 42.1709C199.722 41.8773 198.854 41.4265 198.102 40.8184C197.37 40.1893 197.004 39.3819 197.004 38.3965C197.004 37.1383 197.433 35.985 198.29 34.9365C199.147 33.8881 200.484 33.3633 202.303 33.3633C204.686 33.3633 206.4 33.9086 207.445 34.999C208.511 36.0892 209.169 37.1063 209.42 38.0498C209.504 38.2594 209.587 38.5009 209.671 38.7734C209.775 39.0249 209.901 39.214 210.047 39.3398C210.193 39.4656 210.361 39.5283 210.549 39.5283C210.925 39.5283 211.082 39.3712 211.02 39.0566V38.6475L210.518 32.9541C210.497 32.661 210.35 32.5138 210.079 32.5137C209.807 32.5137 209.556 32.6718 209.326 32.9863L208.888 33.6465C207.069 32.7448 204.926 32.294 202.46 32.2939Z" fill="white"/>

</svg>
