<svg width="700" height="112" viewBox="100 10 400 60" fill="none" xmlns="http://www.w3.org/2000/svg">

<g transform="translate(0, 5)">
<path d="M286.979 33.8467C288.436 33.8467 289.657 34.1502 290.646 34.7568C291.651 35.3636 292.396 36.1613 292.882 37.1494C293.367 38.1374 293.61 39.2037 293.61 40.3477C293.61 42.0463 293.038 43.5286 291.894 44.7939C290.749 46.0591 288.999 46.6914 286.642 46.6914C285.099 46.6914 283.808 46.2754 282.768 45.4434H282.611V50.0986L282.637 50.6699C282.671 51.0513 282.759 51.3035 282.897 51.4248C283.036 51.5459 283.365 51.6326 283.885 51.6846C284.11 51.6846 284.284 51.7017 284.405 51.7363C284.527 51.771 284.587 51.8494 284.587 51.9707C284.587 52.1438 284.44 52.2304 284.146 52.2305H278.555C278.277 52.2305 278.139 52.1439 278.139 51.9707C278.139 51.8842 278.173 51.8147 278.242 51.7627C278.312 51.728 278.416 51.7019 278.555 51.6846C278.693 51.6846 278.815 51.6755 278.919 51.6582C279.699 51.6235 280.089 51.2939 280.089 50.6699V37.7471C280.089 37.123 280.037 36.6719 279.933 36.3945C279.846 36.1174 279.621 35.9353 279.257 35.8486C279.136 35.814 278.954 35.7878 278.711 35.7705C278.468 35.7359 278.26 35.7016 278.087 35.667C277.931 35.6151 277.853 35.5283 277.853 35.4072C277.853 35.2512 277.957 35.1638 278.165 35.1465C278.373 35.1118 278.711 35.0686 279.179 35.0166C279.889 34.8953 280.687 34.6009 281.571 34.1328C281.918 33.9423 282.16 33.8468 282.299 33.8467C282.507 33.8467 282.611 33.9944 282.611 34.2891V35.2764C283.79 34.3231 285.246 33.8467 286.979 33.8467ZM245.876 27.2939C247.921 27.294 249.698 27.6668 251.206 28.4121L251.57 27.8662C251.761 27.6062 251.969 27.4756 252.194 27.4756C252.42 27.4756 252.541 27.5972 252.559 27.8398L252.975 32.5469V32.8848C253.026 33.1446 252.896 33.2744 252.584 33.2744C252.428 33.2743 252.289 33.2221 252.168 33.1182C252.047 33.0142 251.943 32.8582 251.856 32.6504C251.787 32.4252 251.718 32.226 251.648 32.0527C251.44 31.2727 250.894 30.4317 250.01 29.5303C249.143 28.629 247.722 28.1778 245.746 28.1777C244.238 28.1777 243.128 28.6118 242.417 29.4785C241.706 30.3452 241.352 31.2989 241.352 32.3389C241.352 33.1534 241.655 33.8209 242.262 34.3408C242.886 34.8434 243.605 35.2163 244.42 35.459C245.252 35.7016 246.275 35.9529 247.488 36.2129C249.343 36.6462 250.929 37.21 252.246 37.9033C253.581 38.5794 254.249 39.7058 254.249 41.2832C254.249 42.774 253.65 44.1264 252.454 45.3398C251.275 46.5358 249.525 47.1337 247.202 47.1338C244.533 47.1338 242.305 46.7349 240.52 45.9375L240.025 46.458C239.8 46.6834 239.669 46.8049 239.635 46.8223C239.496 46.9087 239.357 46.926 239.219 46.874C239.098 46.8221 239.037 46.7353 239.037 46.6143V46.5098L238.647 41.6475C238.63 41.3182 238.751 41.1534 239.011 41.1533C239.271 41.1533 239.479 41.3526 239.635 41.751C240.276 43.3803 241.273 44.5419 242.625 45.2354C243.977 45.9287 245.277 46.2753 246.525 46.2754C248.155 46.2754 249.334 45.8855 250.062 45.1055C250.808 44.3255 251.181 43.4672 251.181 42.5312C251.181 41.5953 250.79 40.9018 250.01 40.4512C249.247 39.9833 248.268 39.5932 247.072 39.2812C245.997 38.9866 244.94 38.6922 243.899 38.3975C242.877 38.1028 241.975 37.7642 241.195 37.3828C240.415 37.0015 239.765 36.4818 239.245 35.8232C238.742 35.1646 238.491 34.3756 238.491 33.457C238.491 31.7929 239.194 30.3531 240.598 29.1396C242.019 27.9092 243.779 27.2939 245.876 27.2939ZM304.407 27.2939C306.453 27.294 308.229 27.6668 309.737 28.4121L310.102 27.8662C310.292 27.6062 310.5 27.4756 310.726 27.4756C310.951 27.4756 311.072 27.5972 311.09 27.8398L311.506 32.5469V32.8848C311.558 33.1446 311.427 33.2744 311.115 33.2744C310.959 33.2743 310.82 33.2221 310.699 33.1182C310.578 33.0142 310.474 32.8582 310.388 32.6504C310.318 32.4252 310.249 32.226 310.18 32.0527C309.972 31.2727 309.425 30.4317 308.541 29.5303C307.674 28.629 306.253 28.1778 304.277 28.1777C302.769 28.1777 301.659 28.6118 300.948 29.4785C300.238 30.3452 299.883 31.2989 299.883 32.3389C299.883 33.1534 300.186 33.8209 300.793 34.3408C301.417 34.8434 302.137 35.2163 302.951 35.459C303.783 35.7016 304.806 35.9529 306.02 36.2129C307.874 36.6462 309.46 37.21 310.777 37.9033C312.112 38.5794 312.779 39.7058 312.779 41.2832C312.779 42.774 312.181 44.1264 310.985 45.3398C309.807 46.5358 308.056 47.1337 305.733 47.1338C303.064 47.1338 300.836 46.7349 299.051 45.9375L298.557 46.458C298.331 46.6834 298.201 46.8049 298.166 46.8223C298.027 46.9087 297.889 46.926 297.75 46.874C297.629 46.8221 297.568 46.7353 297.568 46.6143V46.5098L297.179 41.6475C297.161 41.3182 297.282 41.1534 297.542 41.1533C297.802 41.1533 298.01 41.3526 298.166 41.751C298.807 43.3803 299.804 44.5419 301.156 45.2354C302.508 45.9287 303.809 46.2753 305.057 46.2754C306.686 46.2754 307.866 45.8855 308.594 45.1055C309.339 44.3255 309.712 43.4672 309.712 42.5312C309.712 41.5953 309.321 40.9018 308.541 40.4512C307.778 39.9833 306.799 39.5932 305.604 39.2812C304.529 38.9866 303.471 38.6922 302.431 38.3975C301.408 38.1028 300.507 37.7642 299.727 37.3828C298.947 37.0015 298.296 36.4818 297.776 35.8232C297.274 35.1646 297.023 34.3756 297.022 33.457C297.022 31.7929 297.724 30.3531 299.128 29.1396C300.549 27.9089 302.31 27.2939 304.407 27.2939ZM261.924 31.4541C262.08 31.4541 262.158 31.5154 262.158 31.6367V34.2109H265.799V34.9902H262.158V43.0518C262.175 43.1213 262.184 43.2945 262.184 43.5713C262.236 44.178 262.357 44.6553 262.548 45.002C262.756 45.3486 263.25 45.5215 264.03 45.5215C264.55 45.5215 264.906 45.4702 265.097 45.3662C265.305 45.2449 265.478 45.071 265.616 44.8457C265.755 44.6203 265.885 44.4556 266.007 44.3516C266.146 44.2477 266.388 44.1953 266.734 44.1953C266.838 44.1953 266.951 44.2305 267.072 44.2998C267.193 44.3518 267.255 44.4122 267.255 44.4814C267.255 44.8628 266.83 45.3662 265.98 45.9902C265.148 46.6142 264.186 46.9258 263.094 46.9258C261.742 46.9257 260.814 46.5962 260.312 45.9375C259.826 45.2614 259.584 44.2123 259.584 42.791V34.9902H258.128C257.972 34.9902 257.894 34.947 257.894 34.8604C257.894 34.7565 257.963 34.6608 258.102 34.5742C258.57 34.2795 259.141 33.8635 259.817 33.3262C260.493 32.7715 261.005 32.269 261.352 31.8184C261.594 31.5758 261.785 31.4542 261.924 31.4541ZM320.455 31.4541C320.611 31.4541 320.689 31.5154 320.689 31.6367V34.2109H324.33V34.9902H320.689V43.0518C320.707 43.1213 320.715 43.2945 320.715 43.5713C320.767 44.178 320.888 44.6553 321.079 45.002C321.287 45.3486 321.782 45.5215 322.562 45.5215C323.082 45.5215 323.437 45.4702 323.628 45.3662C323.836 45.2449 324.009 45.071 324.147 44.8457C324.286 44.6203 324.417 44.4556 324.538 44.3516C324.677 44.2477 324.919 44.1953 325.266 44.1953C325.37 44.1953 325.482 44.2305 325.604 44.2998C325.725 44.3518 325.786 44.4122 325.786 44.4814C325.786 44.8628 325.361 45.3662 324.512 45.9902C323.68 46.6142 322.717 46.9258 321.625 46.9258C320.273 46.9257 319.345 46.5962 318.843 45.9375C318.358 45.2614 318.115 44.2123 318.115 42.791V34.9902H316.659C316.503 34.9902 316.425 34.947 316.425 34.8604C316.425 34.7565 316.494 34.6608 316.633 34.5742C317.101 34.2795 317.673 33.8635 318.349 33.3262C319.025 32.7715 319.536 32.269 319.883 31.8184C320.125 31.5757 320.316 31.4542 320.455 31.4541ZM334.649 33.8467C336.036 33.8467 337.301 34.107 338.445 34.627C339.607 35.1297 340.509 35.8752 341.15 36.8633C341.809 37.834 342.138 39.0128 342.138 40.3994C342.138 42.4968 341.427 44.1086 340.006 45.2354C338.602 46.3621 336.816 46.9258 334.649 46.9258C332.465 46.9258 330.671 46.3621 329.267 45.2354C327.863 44.0913 327.16 42.4794 327.16 40.3994C327.16 39.03 327.49 37.8423 328.148 36.8369C328.807 35.8315 329.7 35.086 330.827 34.6006C331.971 34.0979 333.245 33.8467 334.649 33.8467ZM370.398 33.8467C371.386 33.8467 372.34 34.0457 373.259 34.4443C374.178 34.843 374.923 35.3725 375.495 36.0312C376.067 36.6899 376.354 37.4004 376.354 38.1631C376.353 38.5791 376.127 38.7871 375.677 38.7871H366.16C365.952 40.5378 366.23 42.1065 366.992 43.4932C367.755 44.8626 369.107 45.5479 371.049 45.5479C372.193 45.5478 372.938 45.4002 373.285 45.1055C373.649 44.7935 374.022 44.3431 374.403 43.7539C374.802 43.1647 375.252 42.8693 375.755 42.8691C376.119 42.8691 376.301 42.9387 376.302 43.0771C376.302 43.3545 376.068 43.8147 375.6 44.4561C375.132 45.0801 374.429 45.6519 373.493 46.1719C372.574 46.6746 371.482 46.9258 370.217 46.9258C367.998 46.9258 366.256 46.354 364.99 45.21C363.725 44.0658 363.092 42.5397 363.092 40.6328C363.092 39.0555 363.491 37.7641 364.288 36.7588C365.103 35.7361 366.074 34.9995 367.2 34.5488C368.327 34.0808 369.393 33.8467 370.398 33.8467ZM273.206 33.8467C273.431 33.8468 273.544 33.9945 273.544 34.2891V44.4033L273.57 44.9756C273.588 45.4087 273.708 45.6862 273.934 45.8076C274.176 45.9116 274.515 45.981 274.948 46.0156C275.173 46.0156 275.329 46.0328 275.416 46.0674C275.503 46.0847 275.546 46.1631 275.546 46.3018C275.546 46.4924 275.39 46.5879 275.078 46.5879H269.409C269.115 46.5878 268.968 46.4924 268.968 46.3018C268.968 46.1458 269.167 46.0503 269.565 46.0156C270.051 45.9636 270.406 45.8943 270.632 45.8076C270.857 45.7035 270.97 45.4261 270.97 44.9756V37.8252C270.952 36.8896 270.823 36.3086 270.58 36.083C270.355 35.8577 269.93 35.7451 269.306 35.7451C268.907 35.6931 268.707 35.5975 268.707 35.459C268.707 35.251 268.89 35.1465 269.254 35.1465C270.155 35.1291 271.169 34.8176 272.296 34.2109C272.764 33.9682 273.067 33.8467 273.206 33.8467ZM354.363 33.8467C355.629 33.8467 356.712 34.28 357.613 35.1465C358.064 35.6665 358.35 36.187 358.472 36.707C358.593 37.2097 358.654 37.9203 358.654 38.8389V44.9756C358.654 45.3743 358.767 45.6435 358.992 45.7822C359.235 45.9035 359.565 45.981 359.98 46.0156C360.448 46.0503 360.682 46.1458 360.682 46.3018C360.682 46.4924 360.526 46.5879 360.214 46.5879H354.546C354.234 46.5879 354.077 46.4924 354.077 46.3018C354.077 46.1805 354.129 46.102 354.233 46.0674C354.355 46.0327 354.529 46.0156 354.754 46.0156C355.152 45.9809 355.473 45.8945 355.716 45.7559C355.958 45.6172 356.08 45.3569 356.08 44.9756V38.5791C356.08 36.1349 355.144 34.9132 353.271 34.9131C352.526 34.9131 351.754 35.1553 350.957 35.6406C350.177 36.1087 349.605 36.6984 349.241 37.4092V44.4033C349.241 44.906 349.284 45.2707 349.371 45.4961C349.475 45.7212 349.605 45.8601 349.761 45.9121C349.917 45.9468 350.212 45.981 350.646 46.0156C350.871 46.0156 351.027 46.0327 351.113 46.0674C351.2 46.0848 351.243 46.1632 351.243 46.3018C351.243 46.4924 351.087 46.5878 350.775 46.5879H345.106C344.812 46.5879 344.664 46.4924 344.664 46.3018C344.664 46.1458 344.864 46.0503 345.263 46.0156C345.748 45.9636 346.104 45.8943 346.329 45.8076C346.554 45.7034 346.667 45.426 346.667 44.9756V37.8252C346.65 36.8891 346.519 36.3084 346.276 36.083C346.051 35.8577 345.627 35.7452 345.003 35.7451C344.604 35.6931 344.405 35.5975 344.404 35.459C344.404 35.2856 344.916 35.0776 345.938 34.835C346.979 34.5923 347.664 34.3843 347.993 34.2109C348.461 33.9683 348.765 33.8467 348.903 33.8467C349.128 33.8469 349.241 33.9946 349.241 34.2891V35.9785C349.831 35.3373 350.619 34.8256 351.607 34.4443C352.613 34.0457 353.531 33.8467 354.363 33.8467ZM334.649 34.5742C331.668 34.5742 330.177 36.5164 330.177 40.3994C330.177 42.6008 330.619 44.1262 331.503 44.9756C332.404 45.825 333.453 46.25 334.649 46.25C335.585 46.25 336.391 46.0158 337.067 45.5479C337.761 45.0798 338.281 44.4125 338.628 43.5459C338.992 42.6618 339.174 41.6128 339.174 40.3994C339.174 39.0474 338.957 37.938 338.523 37.0713C338.107 36.1873 337.562 35.5542 336.886 35.1729C336.227 34.7741 335.481 34.5742 334.649 34.5742ZM286.147 34.627C284.83 34.627 283.651 35.1384 282.611 36.1611V41.2578C282.611 43.0084 282.984 44.2395 283.729 44.9502C284.475 45.6433 285.333 45.9902 286.304 45.9902C289.216 45.9901 290.672 44.2128 290.672 40.6592C290.672 36.6375 289.164 34.627 286.147 34.627ZM370.112 34.5742C369.194 34.5743 368.362 34.8265 367.616 35.3291C366.888 35.8319 366.403 36.7504 366.16 38.085H372.453C373.042 38.0849 373.337 37.8508 373.337 37.3828C373.337 37.0361 373.215 36.6462 372.973 36.2129C372.747 35.7795 372.384 35.3977 371.881 35.0684C371.396 34.7391 370.806 34.5742 370.112 34.5742ZM271.828 27.7617C272.331 27.7618 272.738 27.9005 273.05 28.1777C273.379 28.4551 273.544 28.7937 273.544 29.1924C273.544 29.5736 273.379 29.9034 273.05 30.1807C272.738 30.4578 272.331 30.5966 271.828 30.5967C271.343 30.5967 270.935 30.449 270.605 30.1543C270.276 29.8424 270.111 29.5217 270.111 29.1924C270.111 28.8458 270.276 28.5251 270.605 28.2305C270.935 27.9184 271.343 27.7617 271.828 27.7617Z" fill="#222222"/> </g>
<path d="M203.177 19.2939C216.984 19.2939 228.177 30.4868 228.177 44.2939C228.177 58.1011 216.984 69.2939 203.177 69.2939C189.37 69.2939 178.177 58.1011 178.177 44.2939C178.177 30.4868 189.37 19.2939 203.177 19.2939ZM202.46 32.2939C199.931 32.2939 197.809 33.0385 196.095 34.5273C194.402 35.9952 193.556 37.736 193.556 39.749C193.556 40.8603 193.859 41.8145 194.465 42.6113C195.092 43.4081 195.876 44.0367 196.816 44.498C197.757 44.9594 198.844 45.3691 200.077 45.7256C201.331 46.082 202.607 46.4385 203.902 46.7949C205.344 47.1724 206.526 47.6438 207.445 48.21C208.386 48.7552 208.855 49.5943 208.855 50.7266C208.855 51.8589 208.407 52.8972 207.508 53.8408C206.63 54.7843 205.209 55.2558 203.244 55.2559C201.739 55.2559 200.171 54.8367 198.541 53.998C196.911 53.1593 195.709 51.7541 194.936 49.7832C194.747 49.3009 194.496 49.0596 194.183 49.0596C193.869 49.0596 193.723 49.2588 193.744 49.6572L194.214 55.5391V55.665C194.214 55.8117 194.287 55.9166 194.434 55.9795C194.601 56.0423 194.768 56.0208 194.936 55.916C194.978 55.894 195.135 55.7478 195.405 55.4766L196.001 54.8467C198.154 55.8113 200.84 56.2939 204.059 56.2939C206.859 56.2939 208.971 55.5709 210.393 54.124C211.835 52.6562 212.556 51.0201 212.556 49.2168C212.556 47.3087 211.751 45.9458 210.142 45.1279C208.553 44.2891 206.64 43.6073 204.403 43.083C202.94 42.7685 201.707 42.4644 200.704 42.1709C199.722 41.8773 198.854 41.4265 198.102 40.8184C197.37 40.1893 197.004 39.3819 197.004 38.3965C197.004 37.1383 197.433 35.985 198.29 34.9365C199.147 33.8881 200.484 33.3633 202.303 33.3633C204.686 33.3633 206.4 33.9086 207.445 34.999C208.511 36.0892 209.169 37.1063 209.42 38.0498C209.504 38.2594 209.587 38.5009 209.671 38.7734C209.775 39.0249 209.901 39.214 210.047 39.3398C210.193 39.4656 210.361 39.5283 210.549 39.5283C210.925 39.5283 211.082 39.3712 211.02 39.0566V38.6475L210.518 32.9541C210.497 32.661 210.35 32.5138 210.079 32.5137C209.807 32.5137 209.556 32.6718 209.326 32.9863L208.888 33.6465C207.069 32.7448 204.926 32.294 202.46 32.2939Z" fill="#222222"/>
</svg>
